<svg width="33" height="33" viewBox="0 0 33 33" fill="none" xmlns="http://www.w3.org/2000/svg">
<rect x="0.333374" y="0.5" width="32" height="32" rx="4" fill="#E0E8FA"/>
<mask id="mask0_18_331" style="mask-type:alpha" maskUnits="userSpaceOnUse" x="4" y="4" width="25" height="25">
<rect x="4.33337" y="4.5" width="24" height="24" fill="#D9D9D9"/>
</mask>
<g mask="url(#mask0_18_331)">
<path d="M9.33337 26.5C8.78337 26.5 8.31237 26.3043 7.92037 25.913C7.52904 25.521 7.33337 25.05 7.33337 24.5V10.5C7.33337 9.95 7.52904 9.47933 7.92037 9.088C8.31237 8.696 8.78337 8.5 9.33337 8.5H10.3334V6.5H12.3334V8.5H20.3334V6.5H22.3334V8.5H23.3334C23.8834 8.5 24.3544 8.696 24.7464 9.088C25.1377 9.47933 25.3334 9.95 25.3334 10.5V24.5C25.3334 25.05 25.1377 25.521 24.7464 25.913C24.3544 26.3043 23.8834 26.5 23.3334 26.5H9.33337ZM9.33337 24.5H23.3334V14.5H9.33337V24.5ZM9.33337 12.5H23.3334V10.5H9.33337V12.5ZM16.3334 18.5C16.05 18.5 15.8127 18.404 15.6214 18.212C15.4294 18.0207 15.3334 17.7833 15.3334 17.5C15.3334 17.2167 15.4294 16.979 15.6214 16.787C15.8127 16.5957 16.05 16.5 16.3334 16.5C16.6167 16.5 16.8544 16.5957 17.0464 16.787C17.2377 16.979 17.3334 17.2167 17.3334 17.5C17.3334 17.7833 17.2377 18.0207 17.0464 18.212C16.8544 18.404 16.6167 18.5 16.3334 18.5ZM12.3334 18.5C12.05 18.5 11.8124 18.404 11.6204 18.212C11.429 18.0207 11.3334 17.7833 11.3334 17.5C11.3334 17.2167 11.429 16.979 11.6204 16.787C11.8124 16.5957 12.05 16.5 12.3334 16.5C12.6167 16.5 12.8544 16.5957 13.0464 16.787C13.2377 16.979 13.3334 17.2167 13.3334 17.5C13.3334 17.7833 13.2377 18.0207 13.0464 18.212C12.8544 18.404 12.6167 18.5 12.3334 18.5ZM20.3334 18.5C20.05 18.5 19.8127 18.404 19.6214 18.212C19.4294 18.0207 19.3334 17.7833 19.3334 17.5C19.3334 17.2167 19.4294 16.979 19.6214 16.787C19.8127 16.5957 20.05 16.5 20.3334 16.5C20.6167 16.5 20.854 16.5957 21.0454 16.787C21.2374 16.979 21.3334 17.2167 21.3334 17.5C21.3334 17.7833 21.2374 18.0207 21.0454 18.212C20.854 18.404 20.6167 18.5 20.3334 18.5ZM16.3334 22.5C16.05 22.5 15.8127 22.404 15.6214 22.212C15.4294 22.0207 15.3334 21.7833 15.3334 21.5C15.3334 21.2167 15.4294 20.9793 15.6214 20.788C15.8127 20.596 16.05 20.5 16.3334 20.5C16.6167 20.5 16.8544 20.596 17.0464 20.788C17.2377 20.9793 17.3334 21.2167 17.3334 21.5C17.3334 21.7833 17.2377 22.0207 17.0464 22.212C16.8544 22.404 16.6167 22.5 16.3334 22.5ZM12.3334 22.5C12.05 22.5 11.8124 22.404 11.6204 22.212C11.429 22.0207 11.3334 21.7833 11.3334 21.5C11.3334 21.2167 11.429 20.9793 11.6204 20.788C11.8124 20.596 12.05 20.5 12.3334 20.5C12.6167 20.5 12.8544 20.596 13.0464 20.788C13.2377 20.9793 13.3334 21.2167 13.3334 21.5C13.3334 21.7833 13.2377 22.0207 13.0464 22.212C12.8544 22.404 12.6167 22.5 12.3334 22.5ZM20.3334 22.5C20.05 22.5 19.8127 22.404 19.6214 22.212C19.4294 22.0207 19.3334 21.7833 19.3334 21.5C19.3334 21.2167 19.4294 20.9793 19.6214 20.788C19.8127 20.596 20.05 20.5 20.3334 20.5C20.6167 20.5 20.854 20.596 21.0454 20.788C21.2374 20.9793 21.3334 21.2167 21.3334 21.5C21.3334 21.7833 21.2374 22.0207 21.0454 22.212C20.854 22.404 20.6167 22.5 20.3334 22.5Z" fill="#0075FF"/>
</g>
</svg>
