<svg width="57" height="80" viewBox="0 0 57 80" fill="none" xmlns="http://www.w3.org/2000/svg">
<rect width="56" height="80" transform="translate(0.5)" fill="white"/>
<g clip-path="url(#clip0_1_630)">
<path d="M43.4761 62.3544C43.4761 63.6931 43.4542 65.0011 43.4827 66.307C43.5024 67.2367 43.1043 67.6173 42.1702 67.5976C39.0597 67.5385 39.716 67.9345 38.6922 65.2789C38.3401 64.3646 38.211 63.1112 37.5417 62.6409C36.8701 62.1706 35.6496 62.4659 34.6696 62.4659C30.0038 62.4572 25.3381 62.4922 20.6745 62.4375C19.6967 62.4266 19.1433 62.63 18.883 63.6493C18.614 64.7015 18.2246 65.7405 17.7412 66.7117C17.5465 67.1011 16.9843 67.5189 16.56 67.5495C13.5239 67.7835 13.5217 67.7529 13.5217 64.7583C13.5217 64.6862 13.5129 64.6118 13.5217 64.5396C13.7032 63.144 13.4845 62.2013 11.8461 61.6238C9.89712 60.9369 8.7881 59.2089 8.36812 57.1593C7.68127 53.8081 7.02504 50.4505 6.37976 47.0906C6.24632 46.3972 6.03196 46.0013 5.21824 45.8066C2.47741 45.146 0.550297 42.6042 0.499987 39.8131C0.449676 36.9213 2.25648 34.3817 5.05637 33.5964C5.89415 33.3624 6.1457 33.0277 6.23976 32.1571C7.42753 21.1675 16.8247 12.6126 27.9017 12.3676C39.2128 12.116 48.89 20.1285 50.6268 31.1815C50.6377 31.2537 50.664 31.3259 50.6596 31.3981C50.5874 32.763 51.2043 33.3864 52.5495 33.848C55.1525 34.7405 56.675 37.4288 56.4825 40.1609C56.2944 42.8186 54.3804 45.2029 51.762 45.8131C50.933 46.0056 50.7427 46.4212 50.6115 47.1081C50.0209 50.2186 49.3734 53.3204 48.809 56.4352C48.2534 59.4976 46.5385 61.4882 43.4739 62.3544H43.4761ZM49.0387 33.3689C48.599 23.2215 39.5519 13.1572 26.5696 14.1656C16.77 14.9269 6.83693 25.1705 8.04001 33.3689C10.6518 33.9617 12.2377 35.611 13.1279 38.1134C14.6263 42.3264 16.2253 46.5065 17.7871 50.6976C17.8965 50.9907 18.0409 51.2707 18.1962 51.6164C25.0931 48.8712 31.9441 48.8733 38.8344 51.6229C38.9963 51.2161 39.1341 50.8879 39.2588 50.5576C40.7615 46.5372 42.3409 42.5451 43.732 38.4875C44.6442 35.8254 46.1973 33.9945 49.0431 33.3711L49.0387 33.3689ZM28.4705 60.7072C32.8431 60.7072 37.2157 60.7138 41.5862 60.7072C44.6923 60.7007 46.4641 59.2242 47.0591 56.1749C47.735 52.7101 48.4284 49.2496 49.0803 45.7825C49.2531 44.8594 49.5615 44.3366 50.6596 44.2448C52.4664 44.0916 53.7613 43.0373 54.4219 41.3289C55.0672 39.6599 54.7763 38.0938 53.6454 36.7201C51.3727 33.9574 47.0679 34.7076 45.7729 38.1178C43.9661 42.8776 42.2205 47.6615 40.4444 52.4344C39.9303 53.8147 39.7378 53.8978 38.3554 53.3335C31.8019 50.6539 25.2484 50.6408 18.6905 53.316C17.2446 53.9066 17.0631 53.8256 16.5272 52.3885C14.7641 47.6506 13.0186 42.9061 11.238 38.1747C10.3543 35.8298 8.21719 34.6683 5.84384 35.167C3.75267 35.6067 2.20617 37.5972 2.25429 39.789C2.3046 42.0945 3.98235 44.0107 6.38851 44.2601C7.42972 44.3673 7.73377 44.8507 7.9022 45.7344C8.55842 49.2015 9.25402 52.6619 9.92774 56.1268C10.5315 59.2395 12.2902 60.7072 15.4663 60.7116C19.8017 60.7182 24.1372 60.7116 28.4726 60.7116L28.4705 60.7072ZM15.276 65.6792C16.3019 65.8236 16.9537 64.7562 17.3037 62.5294H15.3328C15.311 62.9428 15.2825 63.2971 15.2782 63.6515C15.2694 64.334 15.276 65.0165 15.276 65.6792ZM41.7131 62.5556H39.5628C39.9391 63.5815 40.2584 64.5374 40.6565 65.4627C40.7353 65.6442 41.1071 65.7799 41.3456 65.7842C41.4659 65.7842 41.689 65.4496 41.6978 65.2593C41.7371 64.3909 41.7153 63.5203 41.7153 62.5578L41.7131 62.5556Z" fill="#00D9A6"/>
<path d="M28.7352 25.6691C28.9473 26.0344 29.2973 26.38 29.3542 26.7694C29.9164 30.6914 31.64 32.4063 35.5949 33.01C35.9536 33.0647 36.2489 33.5416 36.5727 33.8216C36.238 34.1256 35.9361 34.6484 35.5665 34.7031C31.7035 35.2631 29.9885 36.9889 29.3411 40.9875C29.2842 41.3375 28.792 41.6175 28.5033 41.9303C28.2102 41.6219 27.7114 41.3485 27.6546 41.0029C26.9765 36.9211 25.4868 35.4359 21.3329 34.6987C20.9895 34.6375 20.7248 34.1322 20.4252 33.8325C20.7467 33.5481 21.0355 33.0669 21.392 33.01C25.3884 32.3713 27.1055 30.6629 27.6458 26.7781C27.7005 26.3756 28.0942 26.0213 28.3305 25.645C28.4661 25.6538 28.6017 25.6603 28.7373 25.6691H28.7352ZM28.4924 31.446C27.7924 32.146 26.7074 33.2353 26.0906 33.8522C26.7949 34.5259 27.9214 35.6065 28.5361 36.1949C29.1923 35.5759 30.3079 34.5259 30.9423 33.9288C30.2313 33.2069 29.153 32.1154 28.4924 31.446Z" fill="#00D9A6"/>
</g>
<defs>
<clipPath id="clip0_1_630">
<rect width="56" height="55.2781" fill="white" transform="translate(0.5 12.3608)"/>
</clipPath>
</defs>
</svg>
