<svg width="57" height="56" viewBox="0 0 57 56" fill="none" xmlns="http://www.w3.org/2000/svg">
<g clip-path="url(#clip0_1_1410)">
<path d="M52.4563 30.0522C44.0009 30.05 35.5476 30.0522 27.0922 30.0522C26.8374 30.0522 26.5261 29.9651 26.3431 30.0805C25.9926 30.3026 25.716 30.6423 25.409 30.9319C25.7117 31.1888 25.9817 31.5068 26.3257 31.6788C26.5587 31.7942 26.8962 31.7049 27.1859 31.7049C35.6043 31.7049 44.0227 31.7049 52.4411 31.7049C54.3747 31.7049 54.8494 32.2972 54.4836 34.2679H2.22244C2.01776 32.1252 2.39229 31.7049 4.41741 31.7049C10.2968 31.7049 16.174 31.7049 22.0534 31.7049C22.38 31.7049 22.7611 31.7942 23.018 31.6592C23.3207 31.4981 23.6626 31.1605 23.7105 30.8557C23.7453 30.6423 23.3599 30.2677 23.0812 30.1262C22.8155 29.9912 22.4432 30.0522 22.1187 30.0522C19.1442 30.0478 16.1675 30.0522 13.1929 30.0478C12.8119 30.0478 12.4308 30.0151 12.0671 29.9977C11.8211 27.2431 11.3377 26.8076 8.64839 26.8076C7.95811 26.8076 7.27 26.8076 6.57972 26.8076C3.96013 26.8076 3.468 27.2671 3.30033 29.8366C3.29598 29.8997 3.23283 29.9585 3.19581 30.0173C1.25126 30.6619 0.53049 31.5481 0.506537 33.3315C0.500005 33.8389 0.523958 34.3485 0.502182 34.8558C0.465164 35.692 0.865833 36.0535 1.68024 36.0404C2.4598 36.0274 3.23936 36.0382 4.03199 36.0382C4.06247 36.3867 4.07772 36.5652 4.09514 36.7438C4.26934 38.7036 5.22093 39.5942 7.18943 39.6181C8.49596 39.6334 9.80249 39.6181 11.109 39.6225C11.7209 39.6247 12.3764 39.6007 12.3524 38.7885C12.3284 37.9784 11.6578 38.0067 11.0568 38.0111C9.82209 38.0176 8.58959 38.022 7.35493 38.0111C5.96129 37.998 5.61071 37.5451 5.86766 36.1188H50.9821C51.054 37.6758 50.7491 38.0111 49.288 38.0133C42.0302 38.0176 34.7724 38.0133 27.5168 38.0133C23.4535 38.0133 19.3881 38.0155 15.3248 38.0111C14.7085 38.0111 14.0531 38.0351 14.0596 38.8277C14.0661 39.6312 14.7455 39.6247 15.3465 39.6225C16.5442 39.6225 17.7592 39.7553 18.9351 39.5942C21.1257 39.2937 22.4388 40.7853 24.2266 41.8066C23.5167 42.0744 23.0159 42.253 22.5194 42.4511C19.8976 43.4985 20.2939 42.8757 20.2504 45.6129C20.246 45.8198 20.1829 46.0267 20.135 46.2967C17.9247 46.2967 15.7494 46.2814 13.5762 46.301C12.1063 46.3141 11.3028 47.1133 11.2353 48.5831C11.2157 49.0186 11.3072 49.4715 11.207 49.8831C11.1112 50.2859 10.9261 50.7563 10.6234 51.0045C9.58909 51.8494 9.171 52.9229 9.5586 54.064C9.92225 55.1353 10.9109 55.8648 12.0214 55.8822C13.169 55.9018 14.2403 55.1375 14.5887 54.0509C14.9546 52.9121 14.543 51.7841 13.4782 51.0089C12.9817 50.6474 12.5549 49.0251 12.9774 48.3806C13.1886 48.0605 13.8832 47.9342 14.3601 47.932C22.5607 47.9059 30.7614 47.9124 38.962 47.9124C39.7612 47.9124 40.5604 47.8797 41.3552 47.9342C41.6273 47.9538 42.0128 48.128 42.1238 48.3457C42.5201 49.1275 42.0868 50.5864 41.3595 51.1918C40.1771 52.1739 40.0356 53.8266 41.0372 54.9655C42.0084 56.0717 43.6329 56.1914 44.7456 55.2399C45.8649 54.2839 46.0935 52.3546 44.922 51.4945C43.8463 50.704 43.8158 49.8112 43.831 48.7181C43.8528 47.1002 43.0449 46.3097 41.4379 46.2967C39.661 46.2814 37.8798 46.2292 36.1051 46.3141C34.8835 46.3729 33.8687 46.055 32.8714 45.3603C31.321 44.2824 29.6944 43.3113 27.9328 42.1876C28.7297 41.8915 29.322 41.7216 29.8686 41.4603C33.111 39.9121 36.5058 39.3873 40.0965 39.5811C43.3171 39.7553 46.553 39.6356 49.7823 39.6072C51.4808 39.592 52.4694 38.6426 52.6545 36.9659C52.6849 36.685 52.7176 36.4041 52.759 36.0361C53.5952 36.0361 54.3965 36.1014 55.1782 36.0078C55.5419 35.9642 56.071 35.6898 56.1821 35.3937C57.2491 32.5106 55.5136 30.0543 52.4563 30.0543V30.0522ZM6.21825 28.4495C7.15895 28.4451 8.09747 28.4451 9.03817 28.4495C10.3665 28.4538 10.3991 28.4952 10.2315 29.9934H5.11858C4.83768 28.6085 4.95091 28.4538 6.22042 28.4495H6.21825ZM13.3867 53.3258C13.3867 54.0618 12.7901 54.6606 12.0519 54.6606C11.3137 54.6606 10.7171 54.064 10.7171 53.3258C10.7171 52.5876 11.3137 51.991 12.0519 51.991C12.7901 51.991 13.3867 52.5876 13.3867 53.3258ZM44.3144 53.3258C44.3144 54.0618 43.7178 54.6606 42.9796 54.6606C42.2414 54.6606 41.6448 54.064 41.6448 53.3258C41.6448 52.5876 42.2414 51.991 42.9796 51.991C43.7178 51.991 44.3144 52.5876 44.3144 53.3258ZM28.3879 44.4066C29.1674 45.0664 30.1059 45.5367 30.916 46.2923H22.0011C21.5547 44.8704 22.1339 44.3935 23.2728 43.8448C25.2065 42.9128 26.7765 43.0412 28.3879 44.4066ZM24.1133 39.6595H29.42C27.4363 41.1903 26.0818 41.2165 24.1133 39.6595Z" fill="#00D9A6"/>
<path d="M1.56482 4.47242C2.75158 4.57694 3.96883 4.62702 5.14689 4.48548C6.93901 4.2699 8.22158 4.93188 9.2864 6.61948C8.50684 7.34896 7.68373 8.05666 6.93247 8.83622C5.39295 10.4324 5.37771 12.5838 6.90634 14.1952C7.26999 14.5784 7.80132 14.8027 8.25642 15.0988C8.21287 15.2774 8.16932 15.456 8.12577 15.6345C7.72292 15.9416 7.22209 16.1811 6.94772 16.5774C6.76263 16.8452 6.72561 17.4637 6.9107 17.7032C8.36748 19.5737 10.6583 20.1181 12.7879 19.1208C13.4782 19.9286 14.4015 20.4992 15.4053 19.8067C16.1827 19.271 17.0428 18.5176 17.3107 17.6836C17.5458 16.9519 17.0102 15.972 16.7772 14.9355C17.6809 15.8457 18.676 16.4489 19.7626 15.5496C20.4442 14.9878 21.2411 14.2888 21.448 13.5092C21.644 12.7689 21.141 11.8412 20.9602 11.0617C23.1704 12.1657 23.4797 12.1113 25.1302 10.2516C26.0121 9.25649 25.9555 8.6642 24.8101 6.99837C25.7269 5.15399 25.6333 4.48113 24.1634 2.32318C22.9723 0.574606 22.9549 0.572429 21.4567 1.99654C21.3304 2.11631 21.1911 2.21865 21.0212 2.3602C20.7534 2.10978 20.5138 1.89638 20.2852 1.66991C18.173 -0.409646 16.1631 -0.407468 14.0639 1.69169C12.8902 2.86539 11.7296 4.05215 10.5058 5.29117C9.78724 4.6096 9.18188 3.99118 8.52426 3.43373C8.239 3.19202 7.84922 2.93942 7.50299 2.93071C5.51054 2.88281 3.51372 2.87192 1.52345 2.9416C1.18157 2.95467 0.854939 3.41848 0.521774 3.67326C0.868004 3.95198 1.19681 4.43975 1.56482 4.47242ZM14.5517 18.4022C13.807 17.8055 13.8593 17.688 15.3335 16.6057C15.9693 17.2524 15.9475 17.3047 14.5517 18.4022ZM19.4708 13.5833C19.0832 13.8947 18.7435 14.7962 18.0554 13.7183C18.4953 13.2915 18.9264 12.8734 19.3576 12.4575C20.185 12.8168 19.9215 13.224 19.473 13.5855L19.4708 13.5833ZM23.2946 9.75515C22.957 10.219 22.5651 10.354 22.2297 9.63103C22.6783 9.24996 23.1356 8.858 23.6756 8.40071C24.5314 9.08011 23.5798 9.36537 23.2946 9.75733V9.75515ZM22.809 3.35316C24.1438 4.93188 24.1329 5.34344 22.6086 6.86772C19.2487 10.2277 15.8887 13.5876 12.5288 16.9476C11.0067 18.4697 10.643 18.4828 8.98372 17.1653C13.574 12.5794 18.1752 7.98262 22.809 3.35533V3.35316ZM15.6971 2.39939C16.5594 1.5545 17.7353 1.58499 18.6499 2.36237C19.0614 2.71296 19.436 3.10492 19.7517 3.4076C16.1914 6.96789 12.6856 10.4759 8.99244 14.169C8.70718 13.825 8.38925 13.4308 8.05827 13.0476C7.21991 12.0829 7.17418 10.9354 8.07569 10.0143C10.5908 7.4513 13.132 4.91228 15.6971 2.39939Z" fill="#00D9A6"/>
<path d="M31.5845 23.2431C35.2842 23.2496 38.9838 23.2431 42.6835 23.2431C46.455 23.2431 50.2265 23.2496 54.0002 23.2387C55.3764 23.2344 56.2343 22.5245 56.2409 21.2702C56.2714 16.2662 56.267 11.26 56.2409 6.25602C56.2343 5.06272 55.433 4.30058 54.2397 4.26792C53.0072 4.23308 51.7682 4.19824 50.5422 4.29405C50.1612 4.32453 49.5602 4.72956 49.5035 5.04312C49.3707 5.77478 50.0066 5.86841 50.5923 5.86624C51.5722 5.86624 52.5521 5.90326 53.5298 5.85535C54.3072 5.81833 54.6338 6.06004 54.6273 6.89404C54.5968 11.4647 54.599 16.0332 54.6273 20.6039C54.6317 21.427 54.3268 21.6535 53.5385 21.6513C46.3221 21.6295 39.1036 21.6273 31.885 21.6513C31.0662 21.6535 30.7374 21.4662 30.7461 20.5625C30.7919 16.0289 30.7875 11.4952 30.7461 6.96154C30.7374 6.08835 31.0162 5.84011 31.8632 5.84882C35.1274 5.88801 38.3915 5.86406 41.6557 5.86406C43.1799 5.86406 44.702 5.87713 46.2263 5.85753C46.8426 5.84882 47.7049 6.06004 47.7288 5.08667C47.7528 4.11331 46.9144 4.25921 46.2786 4.25921C41.3813 4.25485 36.4862 4.25267 31.5889 4.25921C29.8446 4.25921 29.1217 4.94949 29.1152 6.67628C29.0999 11.3907 29.0999 16.1072 29.1152 20.8216C29.1195 22.5571 29.8338 23.2409 31.5801 23.2431H31.5845Z" fill="#00D9A6"/>
<path d="M47.2999 13.1542C46.9362 12.9626 46.4506 12.551 46.2263 12.6621C45.8953 12.8232 45.6841 13.3393 45.536 13.7465C45.3575 14.2321 45.2987 14.7613 45.1267 15.5582C44.4451 14.0688 43.8985 12.8516 43.3345 11.6452C42.7706 10.4388 42.1543 10.3408 41.4009 11.4361C40.6104 12.5881 39.8178 13.5397 38.1977 13.2479C37.9473 13.2021 37.5902 13.7574 37.281 14.034C37.5684 14.2953 37.8384 14.7591 38.1454 14.783C39.6088 14.9006 41.1679 15.1402 41.9758 13.3916C42.0062 13.3263 42.1434 13.311 42.2632 13.2588C43.0449 14.9638 43.7788 16.6579 44.6062 18.3063C44.7935 18.6808 45.303 18.8942 45.6645 19.1817C45.9149 18.8202 46.2851 18.4914 46.3918 18.0929C46.6313 17.2045 46.738 16.2812 46.9057 15.3383C47.7172 15.7724 48.4373 15.469 49.0658 14.4281C49.8955 14.5849 50.5422 14.7613 51.1977 14.8135C51.7943 14.8614 52.5782 14.9529 52.6305 14.0753C52.6893 13.0976 51.8662 13.2217 51.226 13.1782C51.1585 13.1738 51.0931 13.1259 50.9451 13.0628C50.8885 12.4944 50.9059 11.8651 50.7426 11.2837C50.6315 10.8874 50.2657 10.5651 50.0131 10.208C49.6865 10.4454 49.2553 10.6152 49.0528 10.931C48.5476 11.7192 48.1447 12.5728 47.6788 13.4417C47.522 13.3219 47.4218 13.2196 47.2999 13.1542Z" fill="#00D9A6"/>
<path d="M33.6858 11.8543C33.8317 11.8543 33.9754 11.8543 34.1213 11.8543C34.3761 11.8543 34.6831 11.9458 34.8704 11.8347C35.2515 11.6061 35.5672 11.2686 35.9091 10.9768C35.5759 10.7133 35.2776 10.354 34.9009 10.2124C34.5503 10.0818 34.1126 10.1863 33.7141 10.182C33.1044 10.1754 32.4533 10.2081 32.4424 11.0029C32.4316 11.7955 33.0696 11.863 33.6858 11.8565V11.8543Z" fill="#00D9A6"/>
<path d="M34.154 8.82779C34.829 8.83214 35.8481 9.11305 35.8677 8.05476C35.8873 6.8963 34.8094 7.27955 34.1213 7.17285C33.4463 7.26431 32.4359 6.93768 32.4599 8.03952C32.4838 9.13047 33.4855 8.82343 34.154 8.82779Z" fill="#00D9A6"/>
<path d="M33.4964 14.794C33.9232 14.9312 34.4567 14.9225 34.8878 14.794C35.2667 14.6808 35.5694 14.3128 35.9048 14.058C35.5651 13.7727 35.2493 13.4526 34.877 13.2175C34.7223 13.1195 34.4523 13.2022 34.2368 13.2C33.9842 13.2 33.6837 13.1129 33.4877 13.2175C33.1001 13.4243 32.7713 13.7401 32.4185 14.0101C32.7734 14.2823 33.0935 14.6655 33.4942 14.794H33.4964Z" fill="#00D9A6"/>
<path d="M34.0691 17.8078C34.3587 17.8078 34.694 17.9036 34.927 17.7882C35.2929 17.6075 35.5868 17.2852 35.9135 17.0217C35.5955 16.7517 35.3125 16.3423 34.9488 16.2465C34.4414 16.1137 33.8448 16.1093 33.3396 16.2487C32.9868 16.3467 32.7255 16.7735 32.4229 17.0544C32.719 17.3048 32.9868 17.6053 33.3222 17.786C33.5182 17.8927 33.8187 17.8056 34.0713 17.8078H34.0691Z" fill="#00D9A6"/>
</g>
<defs>
<clipPath id="clip0_1_1410">
<rect width="56" height="55.7692" fill="white" transform="translate(0.5 0.115234)"/>
</clipPath>
</defs>
</svg>
