<svg width="57" height="60" viewBox="0 0 57 60" fill="none" xmlns="http://www.w3.org/2000/svg">
<g clip-path="url(#clip0_2_1334)">
<path d="M33.3182 23.5522C32.9512 25.9555 31.7706 27.7883 30.2066 29.5183C29.6455 30.1402 29.739 31.447 29.7531 32.4382C29.7577 32.7421 30.4801 33.0437 30.8846 33.3313C31.0085 33.4178 31.1698 33.4552 31.3147 33.5113C32.4392 33.9485 33.5988 34.7971 34.6765 34.7012C35.6818 34.6124 36.5468 33.4201 37.5684 32.8964C38.9056 32.2115 40.3153 31.6457 41.7414 31.1665C42.0897 31.0496 42.8776 31.3652 43.0132 31.6761C43.3194 32.3775 42.7256 32.6603 42.0944 32.8263C37.6338 34.0022 34.8776 36.8286 34.0289 41.3827C32.9746 47.0285 37.2925 52.7585 42.9968 53.371C49.1406 54.0303 54.5269 49.523 54.7209 43.5545C54.8892 38.423 51.8033 34.243 46.8472 32.8964C46.6601 32.845 46.3983 32.8754 46.2908 32.7585C46.0079 32.4499 45.7928 32.0806 45.5497 31.7369C45.9378 31.5171 46.3609 31.0636 46.7046 31.1197C48.9091 31.4727 50.8355 32.4733 52.4813 33.9789C59.3241 40.2372 57.0915 51.4002 48.348 54.5049C47.5018 54.8064 47.3358 55.2179 47.3381 56.0104C47.3475 59.8094 47.2002 59.9379 43.3895 59.9379C30.064 59.9379 16.7361 59.9379 3.41058 59.9379C1.09146 59.9379 0.504673 59.3558 0.504673 57.0437C0.504673 53.537 0.49766 50.0303 0.504673 46.5236C0.514025 41.9204 2.55727 38.9397 6.81443 37.2892C10.223 35.9683 13.6362 34.6545 17.0354 33.3079C17.4585 33.1396 18.1201 32.7866 18.1295 32.5014C18.1598 31.5779 18.2791 30.3108 17.7531 29.7801C16.1096 28.1203 14.8472 26.3552 14.4053 24.0315C14.3586 23.7907 14.0009 23.5078 13.732 23.4236C10.4427 22.3903 9.41175 19.9075 11.0108 16.8964C11.2142 16.513 11.2236 16.0104 11.2563 15.5569C11.3989 13.6212 11.275 11.6293 11.6864 9.75442C13.0167 3.68312 18.6321 -0.358963 24.7969 0.101586C30.9103 0.55746 35.8033 5.46219 36.3013 11.6504C36.3667 12.4639 36.3784 13.2845 36.3831 14.1028C36.3901 15.3395 36.4556 16.492 37.0611 17.6866C38.1318 19.7977 36.8787 22.3926 34.6274 23.1945C34.2276 23.3371 33.8068 23.4213 33.3182 23.5522ZM8.64027 58.1004C8.64027 57.6516 8.64027 57.2705 8.64027 56.8894C8.64027 54.0443 8.6426 51.2015 8.64027 48.3564C8.64027 47.6691 8.62858 46.8953 9.55435 46.914C10.4006 46.9303 10.4006 47.6784 10.4006 48.319C10.403 51.1641 10.4006 54.0069 10.4053 56.852C10.4053 57.2635 10.4474 57.6726 10.4708 58.0864H18.9056C19.6373 53.7194 20.3925 49.4295 21.0377 45.1232C21.1242 44.5481 20.6496 43.8888 20.4299 43.253C18.3913 44.2068 17.7975 44.0244 16.9535 42.3552C16.7081 41.869 16.4649 41.3827 16.2195 40.8964C15.476 39.4119 14.7326 37.9298 13.9705 36.4102C11.6584 37.3032 9.47954 38.1355 7.30771 38.9818C3.94827 40.2933 2.32116 42.6381 2.30479 46.2197C2.29076 49.8035 2.30011 53.3874 2.30479 56.9713C2.30479 57.343 2.33752 57.7147 2.35388 58.1004H8.6426H8.64027ZM29.1499 12.1787C26.922 13.0765 24.8974 14.1121 22.7466 14.6966C20.6005 15.281 18.3305 15.4119 16.0558 15.7509C16.0558 18.0607 15.9413 20.478 16.0815 22.8789C16.3293 27.1291 19.8103 30.1051 24.2265 30.0069C28.2265 29.9181 31.4807 26.6708 31.5953 22.5703C31.6607 20.2348 31.628 17.897 31.6046 15.5616C31.5999 15.2015 31.5041 14.7644 31.282 14.5002C30.562 13.6399 29.7671 12.8427 29.1499 12.1811V12.1787ZM34.2417 15.3675C35.0272 10.0279 33.6572 5.74741 28.9839 3.18984C24.9629 0.992293 20.9115 1.33595 17.2481 4.11328C13.5637 6.90463 12.6613 10.8181 13.1873 15.5452C13.7554 15.094 14.1154 14.7457 14.5339 14.4908C15.0412 14.1822 15.6046 13.7123 16.1283 13.731C20.4299 13.8853 24.3527 12.7585 28.0184 10.5469C28.4673 10.2758 29.4281 10.1729 29.7297 10.4511C31.0061 11.6293 32.1283 12.9783 33.2995 14.2711C33.6245 14.6288 33.9284 15.0028 34.2417 15.3699V15.3675ZM37.4492 58.1659C37.4492 56.6159 37.5076 55.2553 37.4164 53.904C37.386 53.4458 37.0915 52.8848 36.7385 52.5855C34.4895 50.6825 32.825 48.3751 32.4439 45.4458C32.1727 43.3769 32.3925 41.2471 32.3925 39.4213C32.0675 40.0665 31.5789 41.032 31.0973 41.9999C30.0733 44.0525 29.7063 44.1974 27.6023 43.3792C26.8799 44.0244 26.6157 44.7702 26.8612 45.7614C27.1324 46.8532 27.3217 47.9777 27.3919 49.0975C27.4176 49.5136 27.1043 50.222 26.7864 50.3342C26.0663 50.5844 25.8092 49.9765 25.7016 49.3336C25.4795 48.0011 25.2341 46.6755 25.005 45.3827C22.9126 45.1559 22.9033 45.1536 22.5666 47.0028C22.2814 48.5715 22.0196 50.1448 21.7554 51.7182C21.4047 53.8129 21.0657 55.9076 20.7104 58.0654H27.1604C26.9407 56.7258 26.756 55.4984 26.5316 54.2758C26.417 53.6469 26.3796 53.0344 27.1441 52.8801C27.995 52.7094 28.1704 53.3617 28.2779 54.0186C28.4579 55.1314 28.5982 56.2559 28.8553 57.3523C28.9278 57.6632 29.3346 58.1238 29.5964 58.1285C32.1587 58.1869 34.7233 58.1635 37.4468 58.1635L37.4492 58.1659ZM27.8057 30.9818C25.2107 32.0618 22.6297 31.9543 19.8501 31.0098C19.9483 31.9309 19.7846 32.8029 20.1423 33.3173C21.2808 34.9561 22.6134 36.464 23.9319 38.0957C25.0564 36.7071 26.0172 35.3839 27.1254 34.1986C28.0184 33.2448 28.0067 32.2232 27.8057 30.9818ZM18.7817 42.0794C20.147 41.1092 21.3697 40.2419 22.6508 39.3301C21.4515 37.8456 20.3457 36.4476 19.1955 35.087C19.0131 34.8719 18.5783 34.6615 18.3492 34.734C17.4445 35.0122 16.5748 35.4049 15.6373 35.7766C16.7081 37.9204 17.711 39.9286 18.7817 42.0794ZM29.0845 42.0817C30.1622 39.9169 31.1815 37.869 32.2265 35.7696C31.2423 35.3792 30.4638 35.0262 29.6525 34.7761C29.393 34.6966 28.9255 34.7877 28.7642 34.9771C27.5649 36.3798 26.4193 37.8269 25.2037 39.3254C26.5316 40.2676 27.7542 41.1372 29.0845 42.0817ZM39.2984 58.0513H45.524V55.44C43.4012 55.0893 41.3603 54.7527 39.2984 54.4137V58.0513ZM21.7531 42.2243C22.6017 43.6504 22.6087 43.7252 24.6169 43.5008C25.1897 43.4376 25.697 42.8018 26.3025 42.381C23.4807 40.2255 24.3714 40.2512 21.7531 42.2243ZM14.2113 16.9829C12.7642 17.2144 11.8688 18.2454 11.9997 19.4821C12.1283 20.6884 13.0073 21.4949 14.2113 21.4949V16.9829ZM33.4538 21.5767C34.9594 21.3126 35.7215 20.3962 35.6327 19.087C35.5508 17.869 34.7209 17.0507 33.4538 16.9689V21.5767Z" fill="#00D9A6"/>
<path d="M35.2259 42.9958C35.2376 37.9274 39.3124 33.9017 44.3995 33.9368C49.4047 33.9718 53.4398 38.0513 53.4141 43.0496C53.3884 48.0548 49.344 52.1109 44.348 52.1413C39.3241 52.1717 35.2165 48.0525 35.2282 42.9958H35.2259ZM44.2732 50.3552C48.3387 50.3692 51.6467 47.1057 51.6631 43.0612C51.6794 39.0145 48.3971 35.6854 44.3597 35.655C40.3527 35.6247 36.9816 38.956 36.9559 42.9747C36.9302 47.0121 40.2312 50.3389 44.2732 50.3552Z" fill="#00D9A6"/>
<path d="M43.9834 43.919C44.9816 42.8225 45.891 41.8126 46.8121 40.8144C47.254 40.3374 47.794 39.8722 48.3995 40.445C49.012 41.0248 48.5678 41.5648 48.0932 42.0253C46.95 43.1335 45.7975 44.2299 44.6753 45.3591C44.0582 45.9809 43.4994 46.0137 42.8869 45.3754C42.3235 44.7886 41.6642 44.2743 41.1873 43.6267C40.9839 43.3509 41.1336 42.8132 41.1242 42.3947C41.5427 42.4017 42.0453 42.2615 42.3609 42.4462C42.8799 42.7477 43.2773 43.2574 43.9834 43.9213V43.919Z" fill="#00D9A6"/>
</g>
<defs>
<clipPath id="clip0_2_1334">
<rect width="56" height="59.8667" fill="white" transform="translate(0.5 0.0664062)"/>
</clipPath>
</defs>
</svg>
