<svg width="81" height="80" viewBox="0 0 81 80" fill="none" xmlns="http://www.w3.org/2000/svg">
<rect width="80" height="80" transform="translate(0.5)" fill="white"/>
<g clip-path="url(#clip0_1_622)">
<path d="M51.0864 16.8252C51.7424 16.8252 52.4269 16.8208 53.1136 16.8252C56.0045 16.8427 57.6468 18.4675 57.6731 21.3738C57.6949 23.6327 57.6774 25.8939 57.6774 28.1551C57.6774 28.5465 57.6774 28.9358 57.6774 29.4541C59.0376 29.4541 60.2666 29.4475 61.4956 29.4541C62.9695 29.465 63.5534 30.0314 63.5687 31.4965C63.5818 32.6621 63.5753 33.8299 63.5381 34.9954C63.4966 36.2463 62.8821 36.8542 61.6203 36.8805C60.3541 36.9089 59.0858 36.887 57.7474 36.887V40.1651C58.9961 40.1651 60.2207 40.1585 61.4453 40.1651C62.9848 40.1738 63.5578 40.7358 63.5665 42.2688C63.5731 43.3994 63.5709 44.53 63.5359 45.6584C63.4966 46.9705 62.8843 47.5675 61.5525 47.5937C60.3191 47.6178 59.0858 47.5981 57.7627 47.5981V50.8127C58.9808 50.8127 60.1726 50.8039 61.3644 50.8149C63.0286 50.8302 63.5665 51.3856 63.5665 53.0739C63.5665 54.1673 63.5709 55.2629 63.5359 56.3541C63.4944 57.6224 62.9127 58.2041 61.6268 58.2369C60.3607 58.2697 59.0945 58.2435 57.7518 58.2435V61.4384H66.7899C66.8096 61.0142 66.8446 60.6249 66.8446 60.2379C66.8468 49.9576 66.849 39.6774 66.8446 29.3972C66.8446 26.9589 66.0639 26.1738 63.6628 26.1716C62.788 26.1716 61.9133 26.1716 61.0386 26.1716C60.4372 26.1716 59.8227 26.0229 59.9452 25.3188C60.002 24.9951 60.599 24.5665 60.9817 24.5337C62.1385 24.4309 63.3129 24.4484 64.4763 24.5118C66.8839 24.6431 68.4847 26.3641 68.4869 28.8221C68.4978 39.5768 68.4934 50.3294 68.4869 61.0842C68.4869 62.6106 67.8702 63.1682 66.2257 63.1682C54.3819 63.1682 42.5359 63.1682 30.6921 63.1682C25.3716 63.1682 20.0511 63.1682 14.7284 63.1682C13.0598 63.1682 12.4934 62.6062 12.4934 60.9464C12.5 50.3075 12.5 39.6621 12.5044 29.0167C12.5044 26.2066 14.1751 24.525 16.983 24.5009C19.0189 24.4856 21.057 24.4987 23.2569 24.4987C23.2569 23.4053 23.2548 22.4628 23.2569 21.5225C23.2657 18.4981 24.908 16.8383 27.9017 16.8252C28.5556 16.823 29.2073 16.8252 29.9727 16.8252H51.0864ZM29.8961 18.509C29.3101 18.509 28.6956 18.509 28.0811 18.509C25.7018 18.5134 24.9386 19.27 24.9386 21.6427C24.9386 34.5122 24.9386 47.3816 24.9386 60.251V61.4406H31.5341C31.5341 59.8683 31.4859 58.3747 31.5712 56.892C31.5909 56.5596 32.0786 56.2535 32.3519 55.9342C32.6231 56.2163 32.973 56.4591 33.137 56.7936C33.2682 57.0604 33.1742 57.4366 33.1742 57.7646C33.1742 58.987 33.1742 60.2116 33.1742 61.4603H39.599V47.1607H33.172C33.172 48.9801 33.172 50.7208 33.172 52.4637C33.172 53.0454 33.1086 53.6577 32.3913 53.6818C31.604 53.708 31.5209 53.0914 31.5253 52.4528C31.5384 50.7099 31.5297 48.9648 31.5297 47.1541C30.117 46.9726 29.7955 46.0564 29.8786 44.8624C29.9049 44.4994 29.8677 44.132 29.8918 43.769C29.9683 42.6843 30.4647 42.1726 31.5559 42.1682C37.5325 42.1551 43.5112 42.1441 49.4878 42.1966C49.9711 42.201 50.6534 42.5771 50.8961 42.9861C51.7424 44.4075 50.9858 46.5571 49.5031 47.2547V61.4712H56.0242V60.2466C56.0242 47.3772 56.0242 34.5078 56.0242 21.6384C56.0242 21.3103 56.0417 20.978 56.0023 20.6543C55.8668 19.5543 55.0227 18.6337 53.9555 18.5484C52.9867 18.4719 52.007 18.5331 51.058 18.5331L29.8939 18.5068L29.8961 18.509ZM23.222 36.8914C21.8793 36.8914 20.6481 36.9111 19.4169 36.887C18.1048 36.8608 17.4947 36.2485 17.4597 34.9277C17.4269 33.7621 17.416 32.5943 17.4335 31.4287C17.4553 30.0423 18.0567 29.4694 19.4672 29.4562C20.694 29.4453 21.923 29.4541 23.1717 29.4541V26.176C21.1576 26.176 19.231 26.176 17.3044 26.176C14.9624 26.176 14.1554 26.9764 14.1532 29.3207C14.1489 39.6359 14.1532 49.9489 14.1532 60.2641C14.1532 60.6512 14.1904 61.0361 14.2167 61.5237C16.9414 61.5237 19.5569 61.5237 22.1723 61.5215C22.4916 61.5215 22.8108 61.4844 23.1651 61.4603V58.2501C21.8377 58.2501 20.6 58.2763 19.3644 58.2435C18.0808 58.2107 17.5012 57.6268 17.4597 56.3585C17.4247 55.265 17.4291 54.1716 17.4291 53.0782C17.4291 51.3922 17.9692 50.8389 19.6312 50.8214C20.8165 50.8105 22.0017 50.8193 23.1585 50.8193V47.668C22.9902 47.6396 22.9202 47.6178 22.848 47.6178C21.7918 47.6134 20.7355 47.6178 19.6771 47.6068C18.0283 47.5915 17.475 47.0339 17.451 45.3566C17.4356 44.3353 17.4225 43.3163 17.4291 42.295C17.44 40.7533 18.0064 40.1826 19.5306 40.1716C20.753 40.1629 21.9733 40.1716 23.222 40.1716V36.8936V36.8914ZM47.7427 61.4669V47.1782H41.4141V61.4669H47.7427ZM31.58 45.3741H49.4156V43.8586H31.5822V45.3741H31.58ZM19.1392 31.1226V35.1288H23.1826V31.1226H19.1392ZM61.8433 35.1485V31.0701C60.6318 31.0701 59.5078 31.0351 58.3882 31.0964C58.1432 31.1095 57.7277 31.4528 57.7168 31.6627C57.6512 32.8086 57.6862 33.9589 57.6862 35.1463H61.8433V35.1485ZM19.1042 45.8442H23.1826V41.8599H19.1042V45.8442ZM61.8411 45.8749V41.7811C60.6253 41.7811 59.4991 41.7527 58.3772 41.803C58.1432 41.8139 57.7321 42.1004 57.7234 42.2754C57.6643 43.4562 57.6928 44.6437 57.6928 45.8727H61.8411V45.8749ZM19.161 52.5162V56.5312H23.1979V52.5162H19.161ZM61.898 52.5381H57.743V56.5225H61.898V52.5381Z" fill="#00D9A6"/>
<path d="M33.5022 38.8836C32.3738 38.8836 31.2454 38.9011 30.1192 38.8792C28.8683 38.8552 28.2429 38.2341 28.2254 36.9942C28.2079 35.7564 28.2101 34.5187 28.2385 33.281C28.2648 32.0979 28.888 31.4637 30.0755 31.4528C32.3672 31.4287 34.6612 31.4309 36.953 31.4528C38.1929 31.4637 38.8205 32.0848 38.8555 33.34C38.8905 34.5756 38.8927 35.8155 38.8533 37.051C38.814 38.2407 38.1798 38.8508 36.9989 38.8792C35.8355 38.9054 34.67 38.8858 33.5066 38.8858L33.5022 38.8836ZM29.9071 33.1585V37.1582H37.1301V33.1585H29.9071Z" fill="#00D9A6"/>
<path d="M47.3841 38.8836C46.2579 38.8836 45.1317 38.9033 44.0055 38.8771C42.8246 38.8508 42.1882 38.2385 42.151 37.0555C42.1117 35.7849 42.1073 34.51 42.151 33.2395C42.1926 32.0673 42.8421 31.4616 44.0339 31.4507C46.3235 31.431 48.6131 31.4288 50.9005 31.4507C52.1273 31.4638 52.7396 32.1133 52.7571 33.3685C52.7724 34.5319 52.7659 35.6953 52.7505 36.8565C52.7309 38.2363 52.1229 38.8574 50.7627 38.8771C49.6365 38.8924 48.5103 38.8815 47.3841 38.8793V38.8836ZM43.8393 33.1586V37.1342H51.0405V33.1586H43.8393Z" fill="#00D9A6"/>
<path d="M33.5022 29.3274C32.3738 29.3274 31.2454 29.3449 30.1192 29.3231C28.8683 29.299 28.2429 28.6779 28.2254 27.438C28.2079 26.2003 28.2101 24.9625 28.2385 23.7248C28.2648 22.5417 28.888 21.9076 30.0755 21.8966C32.3672 21.8726 34.6612 21.8748 36.953 21.8966C38.1929 21.9076 38.8205 22.5286 38.8555 23.7838C38.8905 25.0194 38.8927 26.2593 38.8533 27.4949C38.814 28.6845 38.1798 29.2946 36.9989 29.3231C35.8355 29.3493 34.67 29.3296 33.5066 29.3296L33.5022 29.3274ZM29.9071 23.6023V27.602H37.1301V23.6023H29.9071Z" fill="#00D9A6"/>
<path d="M47.3841 29.327C46.2579 29.327 45.1317 29.3467 44.0055 29.3204C42.8246 29.2942 42.1882 28.6819 42.151 27.4988C42.1117 26.2283 42.1073 24.9534 42.151 23.6828C42.1926 22.5107 42.8421 21.9049 44.0339 21.894C46.3235 21.8743 48.6131 21.8721 50.9005 21.894C52.1273 21.9071 52.7396 22.5566 52.7571 23.8118C52.7724 24.9752 52.7659 26.1386 52.7505 27.2998C52.7309 28.6797 52.1229 29.3008 50.7627 29.3204C49.6365 29.3357 48.5103 29.3248 47.3841 29.3226V29.327ZM43.8393 23.6019V27.5775H51.0405V23.6019H43.8393Z" fill="#00D9A6"/>
<path d="M38.0486 54.3421C38.0486 54.5958 38.1426 54.9107 38.0289 55.0944C37.8233 55.4202 37.4931 55.6695 37.2154 55.9494C36.9399 55.6651 36.5353 55.4224 36.426 55.0834C36.286 54.6548 36.286 54.1169 36.4172 53.6839C36.5331 53.3056 36.9114 53.006 37.176 52.6714C37.4713 53.0103 37.8015 53.3252 38.0464 53.697C38.147 53.8501 38.0639 54.1234 38.0639 54.3421C38.0617 54.3421 38.0573 54.3421 38.0551 54.3421H38.0486Z" fill="#00D9A6"/>
<path d="M44.644 54.4033C44.6134 54.716 44.679 55.0965 44.5259 55.348C44.3663 55.6126 44.0098 55.8838 43.7212 55.9057C43.4981 55.9232 43.0695 55.5842 43.0389 55.3611C42.9427 54.6854 42.9252 53.9791 43.0258 53.3077C43.0629 53.0628 43.5156 52.7173 43.778 52.7173C44.0405 52.7173 44.4078 53.0409 44.5412 53.3143C44.6878 53.6183 44.6178 54.025 44.644 54.4033Z" fill="#00D9A6"/>
</g>
<defs>
<clipPath id="clip0_1_622">
<rect width="56" height="46.3496" fill="white" transform="translate(12.5 16.8252)"/>
</clipPath>
</defs>
</svg>
