<svg width="30" height="37" viewBox="0 0 30 37" fill="none" xmlns="http://www.w3.org/2000/svg">
<g clip-path="url(#clip0_1_1423)">
<path d="M29.7858 11.3519C29.7858 9.05049 27.9086 7.17335 25.6008 7.17335C23.2929 7.17335 21.4158 9.04406 21.4158 11.3519C21.4158 13.4348 22.9586 15.1641 24.9579 15.4726V29.6733C24.9579 32.7269 22.5279 35.2148 19.5515 35.2148L15.6108 35.1955C12.7886 35.1955 10.4679 32.9712 10.2236 30.1426C10.7958 29.8855 11.1943 29.3005 11.1943 28.6255V24.5883C15.6558 23.7783 18.8893 19.8441 18.8893 15.2155V14.0133C18.8893 13.3191 18.4651 12.7212 17.8672 12.4769V3.21977C17.8672 2.54477 17.3208 1.99192 16.6522 1.99192H16.1122V1.77977C16.1122 1.07263 15.5401 0.500488 14.8329 0.500488H14.6786C13.5086 0.500488 12.5508 1.45192 12.5508 2.6412C12.5508 3.83049 13.5022 4.76906 14.6786 4.76906H14.8329C15.5401 4.76906 16.1122 4.19692 16.1122 3.48977V3.27763H16.5815V12.5026C16.0093 12.7598 15.6108 13.3448 15.6108 14.0198V15.0226C15.6108 18.3012 13.2065 21.1041 10.1401 21.3933C8.44292 21.5605 6.81006 21.0141 5.54363 19.8569C4.24506 18.6805 3.49935 16.9898 3.49935 15.2155V14.0133C3.49935 13.3383 3.10078 12.7598 2.52863 12.4962V3.27763H2.99792V3.48977C2.99792 4.19692 3.57006 4.76906 4.2772 4.76906H4.43149C5.60149 4.76906 6.55935 3.81763 6.55935 2.62835C6.55935 1.43906 5.59506 0.500488 4.41863 0.500488H4.26435C3.5572 0.500488 2.98506 1.07263 2.98506 1.77977V1.99192H2.44506C1.77649 1.99192 1.23006 2.53835 1.23006 3.21977V12.4833C0.632205 12.7341 0.207919 13.3255 0.207919 14.0198V15.2219C0.207919 19.8505 3.44149 23.7848 7.90292 24.5948V28.6319C7.90292 29.3262 8.3272 29.9241 8.92506 30.1683C9.1822 33.6912 12.0751 36.4812 15.5915 36.4812L19.5322 36.5005C23.2222 36.5005 26.2308 33.4341 26.2308 29.6733V15.4726C28.2365 15.1641 29.7729 13.4348 29.7729 11.3519H29.7858ZM14.6786 3.48335C14.2158 3.48335 13.8365 3.10406 13.8365 2.62835C13.8365 2.15263 14.2158 1.7862 14.6786 1.7862H14.8265L14.8329 3.48335H14.6786ZM4.41863 1.7862C4.88149 1.7862 5.26078 2.16549 5.26078 2.6412C5.26078 3.11692 4.88149 3.48335 4.41863 3.48335H4.27078L4.26435 1.7862H4.41863ZM8.17292 23.3348C4.30292 22.6533 1.50006 19.2398 1.50006 15.2219V14.0198C1.50006 13.8141 1.66078 13.6405 1.85363 13.6405C2.04649 13.6405 2.2072 13.8076 2.2072 14.0198V15.2219C2.2072 17.3498 3.1072 19.3876 4.66935 20.8148C6.2122 22.2162 8.1922 22.8719 10.2558 22.6791C13.9779 22.3191 16.8901 18.9569 16.8901 15.0291V14.0262C16.8901 13.8205 17.0508 13.6469 17.2436 13.6469C17.4365 13.6469 17.5972 13.8141 17.5972 14.0262V15.2283C17.5972 19.2462 14.7879 22.6598 10.9179 23.3412C10.3265 23.4441 9.9022 23.9519 9.9022 24.5498V28.6383C9.9022 28.8441 9.74149 29.0176 9.54863 29.0176C9.35578 29.0176 9.19506 28.8505 9.19506 28.6383V24.5498C9.19506 23.9519 8.76435 23.4441 8.17935 23.3412L8.17292 23.3348ZM25.5943 14.2448C23.9936 14.2448 22.6951 12.9462 22.6951 11.3519C22.6951 9.75763 23.9936 8.45906 25.5943 8.45906C27.1951 8.45906 28.4936 9.75763 28.4936 11.3519C28.4936 12.9462 27.1951 14.2448 25.5943 14.2448Z" fill="#00D9A6"/>
<path d="M25.6008 9.1084C24.3601 9.1084 23.3443 10.1113 23.3443 11.352C23.3443 12.5927 24.3536 13.5955 25.6008 13.5955C26.8479 13.5955 27.8572 12.5927 27.8572 11.352C27.8572 10.1113 26.8479 9.1084 25.6008 9.1084ZM25.6008 12.3034C25.0672 12.3034 24.6301 11.8727 24.6301 11.3455C24.6301 10.8184 25.0672 10.3877 25.6008 10.3877C26.1343 10.3877 26.5715 10.8184 26.5715 11.3455C26.5715 11.8727 26.1343 12.3034 25.6008 12.3034Z" fill="#00D9A6"/>
</g>
<defs>
<clipPath id="clip0_1_1423">
<rect width="29.5714" height="36" fill="white" transform="translate(0.214348 0.500488)"/>
</clipPath>
</defs>
</svg>
