<svg width="37" height="25" viewBox="0 0 37 25" fill="none" xmlns="http://www.w3.org/2000/svg">
<g clip-path="url(#clip0_1_1431)">
<path d="M36.1598 12.0185C35.2277 10.8806 26.8255 0.929199 19.0405 0.929199C11.2555 0.929199 2.22339 11.6392 1.83767 12.1213L0.731958 13.6449C0.121244 14.4871 0.230529 15.6571 0.989101 16.3642C1.38767 16.7435 1.91482 16.9363 2.46124 16.9042C3.00767 16.8785 3.5091 16.6342 3.87553 16.2163L4.35767 15.6571C7.44981 18.8199 13.422 24.0656 19.047 24.0656C24.672 24.0656 30.9462 18.5756 34.077 15.3035C35.2084 14.1271 35.9605 13.2206 36.1662 12.9763C36.3977 12.6935 36.3977 12.2949 36.1662 12.0121L36.1598 12.0185ZM33.1448 14.4228C30.1491 17.5471 24.3377 22.7863 19.0405 22.7863C13.7434 22.7863 8.16339 17.7335 5.22553 14.7185C4.9941 14.4806 4.6791 14.3456 4.35124 14.3456H4.3191C3.97839 14.3521 3.65053 14.5063 3.42553 14.7699L2.89839 15.3742C2.76339 15.5285 2.58339 15.6121 2.39053 15.6249C2.2041 15.6378 2.01124 15.5671 1.86339 15.4321C1.58053 15.1621 1.53553 14.7249 1.76696 14.4035L2.85982 12.8992C2.94339 12.7899 11.532 2.20848 19.0405 2.20848C25.707 2.20848 33.3184 10.6685 34.887 12.4942C34.5398 12.8992 33.942 13.5871 33.1448 14.4163V14.4228Z" fill="#00D9A6"/>
<path d="M23.1548 4.6321C22.0041 4.05352 20.712 3.71924 19.3427 3.71924C19.3234 3.71924 19.2977 3.71924 19.2784 3.71924C19.2591 3.71924 19.2398 3.71924 19.2205 3.71924C14.772 3.71924 10.1755 7.42209 6.26697 11.0414C6.00339 11.2857 5.99054 11.6907 6.23482 11.9478C6.36339 12.0828 6.53697 12.1535 6.70411 12.1535C6.85839 12.1535 7.01911 12.0957 7.14125 11.98C8.69054 10.5464 10.3427 9.10638 12.0398 7.90424C11.2877 9.17067 10.8505 10.6428 10.8505 12.2178C10.8505 16.9042 14.6627 20.7164 19.3491 20.7164C24.0355 20.7164 27.8477 16.9042 27.8477 12.2178C27.8477 10.8871 27.5327 9.6271 26.9798 8.50852C28.4263 9.63995 29.7891 10.8807 30.9784 11.9735C31.242 12.2114 31.647 12.1985 31.8848 11.935C32.1227 11.6714 32.1034 11.2664 31.8463 11.0285C29.4355 8.82352 26.3948 6.04638 23.1548 4.63852V4.6321ZM19.3427 19.4307C15.3634 19.4307 12.1298 16.1971 12.1298 12.2178C12.1298 8.23852 15.3313 5.04352 19.2784 5.00495C20.3777 5.01781 21.4898 5.3071 22.5955 5.78281C24.942 6.9721 26.5555 9.40852 26.5555 12.2114C26.5555 16.1907 23.322 19.4242 19.3427 19.4242V19.4307Z" fill="#00D9A6"/>
<path d="M19.3362 7.34492C18.9891 7.34492 18.6612 7.39635 18.3334 7.46064C17.8962 6.97849 17.2727 6.66992 16.572 6.66992C15.2605 6.66992 14.1934 7.73706 14.1934 9.04849C14.1934 9.62706 14.412 10.1542 14.7527 10.5656C14.5662 11.0863 14.4634 11.6456 14.4634 12.2113C14.4634 14.8985 16.6491 17.0842 19.3362 17.0842C22.0234 17.0842 24.2091 14.8985 24.2091 12.2113C24.2091 9.52421 22.0234 7.33849 19.3362 7.33849V7.34492ZM16.572 7.95564C17.1762 7.95564 17.6648 8.44421 17.6648 9.04849C17.6648 9.65278 17.1762 10.1414 16.572 10.1414C15.9677 10.1414 15.4791 9.65278 15.4791 9.04849C15.4791 8.44421 15.9677 7.95564 16.572 7.95564ZM19.3362 15.8049C17.3562 15.8049 15.7491 14.1978 15.7491 12.2178C15.7491 11.9028 15.7941 11.6006 15.8712 11.3178C16.0962 11.3885 16.3277 11.4335 16.5784 11.4335C17.8898 11.4335 18.957 10.3664 18.957 9.05492C18.957 8.91992 18.9377 8.79135 18.9184 8.66278C19.0598 8.64349 19.1948 8.63064 19.3427 8.63064C21.3227 8.63064 22.9298 10.2378 22.9298 12.2178C22.9298 14.1978 21.3227 15.8049 19.3427 15.8049H19.3362Z" fill="#00D9A6"/>
</g>
<defs>
<clipPath id="clip0_1_1431">
<rect width="36" height="23.1429" fill="white" transform="translate(0.333389 0.929199)"/>
</clipPath>
</defs>
</svg>
