<svg width="32" height="33" viewBox="0 0 32 33" fill="none" xmlns="http://www.w3.org/2000/svg">
<rect y="0.5" width="32" height="32" rx="4" fill="#E0E8FA"/>
<mask id="mask0_18_323" style="mask-type:alpha" maskUnits="userSpaceOnUse" x="4" y="4" width="24" height="25">
<rect x="4" y="4.5" width="24" height="24" fill="#D9D9D9"/>
</mask>
<g mask="url(#mask0_18_323)">
<path d="M16 20.5C17.25 20.5 18.3127 20.0627 19.188 19.188C20.0627 18.3127 20.5 17.25 20.5 16C20.5 14.75 20.0627 13.6873 19.188 12.812C18.3127 11.9373 17.25 11.5 16 11.5C14.75 11.5 13.6873 11.9373 12.812 12.812C11.9373 13.6873 11.5 14.75 11.5 16C11.5 17.25 11.9373 18.3127 12.812 19.188C13.6873 20.0627 14.75 20.5 16 20.5ZM16 18.7C15.25 18.7 14.6127 18.4373 14.088 17.912C13.5627 17.3873 13.3 16.75 13.3 16C13.3 15.25 13.5627 14.6123 14.088 14.087C14.6127 13.5623 15.25 13.3 16 13.3C16.75 13.3 17.3877 13.5623 17.913 14.087C18.4377 14.6123 18.7 15.25 18.7 16C18.7 16.75 18.4377 17.3873 17.913 17.912C17.3877 18.4373 16.75 18.7 16 18.7ZM16 23.5C13.5667 23.5 11.35 22.8207 9.35 21.462C7.35 20.104 5.9 18.2833 5 16C5.9 13.7167 7.35 11.8957 9.35 10.537C11.35 9.179 13.5667 8.5 16 8.5C18.4333 8.5 20.65 9.179 22.65 10.537C24.65 11.8957 26.1 13.7167 27 16C26.1 18.2833 24.65 20.104 22.65 21.462C20.65 22.8207 18.4333 23.5 16 23.5ZM16 21.5C17.8833 21.5 19.6127 21.004 21.188 20.012C22.7627 19.0207 23.9667 17.6833 24.8 16C23.9667 14.3167 22.7627 12.979 21.188 11.987C19.6127 10.9957 17.8833 10.5 16 10.5C14.1167 10.5 12.3873 10.9957 10.812 11.987C9.23733 12.979 8.03333 14.3167 7.2 16C8.03333 17.6833 9.23733 19.0207 10.812 20.012C12.3873 21.004 14.1167 21.5 16 21.5Z" fill="#0075FF"/>
</g>
</svg>
