<svg width="48" height="48" viewBox="0 0 48 48" fill="none" xmlns="http://www.w3.org/2000/svg">
<circle cx="24" cy="24" r="24" fill="#0075FF"/>
<mask id="mask0_36_4880" style="mask-type:alpha" maskUnits="userSpaceOnUse" x="12" y="12" width="24" height="24">
<rect x="12" y="12" width="24" height="24" fill="#D9D9D9"/>
</mask>
<g mask="url(#mask0_36_4880)">
<path d="M16 30C15.45 30 14.9793 29.8043 14.588 29.413C14.196 29.021 14 28.55 14 28V17C14 16.45 14.196 15.979 14.588 15.587C14.9793 15.1957 15.45 15 16 15H32C32.55 15 33.021 15.1957 33.413 15.587C33.8043 15.979 34 16.45 34 17V28C34 28.55 33.8043 29.021 33.413 29.413C33.021 29.8043 32.55 30 32 30H16ZM16 28H32V17H16V28ZM14 33C13.7167 33 13.4793 32.904 13.288 32.712C13.096 32.5207 13 32.2833 13 32C13 31.7167 13.096 31.4793 13.288 31.288C13.4793 31.096 13.7167 31 14 31H34C34.2833 31 34.5207 31.096 34.712 31.288C34.904 31.4793 35 31.7167 35 32C35 32.2833 34.904 32.5207 34.712 32.712C34.5207 32.904 34.2833 33 34 33H14Z" fill="white"/>
</g>
</svg>
