<svg width="33" height="33" viewBox="0 0 33 33" fill="none" xmlns="http://www.w3.org/2000/svg">
<rect x="0.666748" y="0.5" width="32" height="32" rx="4" fill="#E0E8FA"/>
<mask id="mask0_18_338" style="mask-type:alpha" maskUnits="userSpaceOnUse" x="4" y="4" width="25" height="25">
<rect x="4.66675" y="4.5" width="24" height="24" fill="#D9D9D9"/>
</mask>
<g mask="url(#mask0_18_338)">
<path d="M16.6667 16.5C15.5667 16.5 14.6251 16.1083 13.8417 15.325C13.0584 14.5417 12.6667 13.6 12.6667 12.5C12.6667 11.4 13.0584 10.4583 13.8417 9.675C14.6251 8.89167 15.5667 8.5 16.6667 8.5C17.7667 8.5 18.7084 8.89167 19.4917 9.675C20.2751 10.4583 20.6667 11.4 20.6667 12.5C20.6667 13.6 20.2751 14.5417 19.4917 15.325C18.7084 16.1083 17.7667 16.5 16.6667 16.5ZM8.66675 24.5V21.7C8.66675 21.1333 8.81275 20.6123 9.10475 20.137C9.39608 19.6623 9.78341 19.3 10.2667 19.05C11.3001 18.5333 12.3501 18.1457 13.4167 17.887C14.4834 17.629 15.5667 17.5 16.6667 17.5C17.7667 17.5 18.8501 17.629 19.9167 17.887C20.9834 18.1457 22.0334 18.5333 23.0667 19.05C23.5501 19.3 23.9374 19.6623 24.2287 20.137C24.5207 20.6123 24.6667 21.1333 24.6667 21.7V24.5H8.66675ZM10.6667 22.5H22.6667V21.7C22.6667 21.5167 22.6211 21.35 22.5297 21.2C22.4377 21.05 22.3167 20.9333 22.1667 20.85C21.2667 20.4 20.3584 20.0623 19.4417 19.837C18.5251 19.6123 17.6001 19.5 16.6667 19.5C15.7334 19.5 14.8084 19.6123 13.8917 19.837C12.9751 20.0623 12.0667 20.4 11.1667 20.85C11.0167 20.9333 10.8961 21.05 10.8047 21.2C10.7127 21.35 10.6667 21.5167 10.6667 21.7V22.5ZM16.6667 14.5C17.2167 14.5 17.6877 14.304 18.0797 13.912C18.4711 13.5207 18.6667 13.05 18.6667 12.5C18.6667 11.95 18.4711 11.4793 18.0797 11.088C17.6877 10.696 17.2167 10.5 16.6667 10.5C16.1167 10.5 15.6461 10.696 15.2547 11.088C14.8627 11.4793 14.6667 11.95 14.6667 12.5C14.6667 13.05 14.8627 13.5207 15.2547 13.912C15.6461 14.304 16.1167 14.5 16.6667 14.5Z" fill="#0075FF"/>
</g>
</svg>
