<svg width="87" height="87" viewBox="0 0 87 87" fill="none" xmlns="http://www.w3.org/2000/svg">
<g filter="url(#filter0_d_260_6663)">
<rect x="15.5" y="9.5" width="56" height="56" rx="28" fill="white" shape-rendering="crispEdges"/>
<g clip-path="url(#clip0_260_6663)">
<path d="M58.2856 30.3514C58.2856 28.05 56.4085 26.1729 54.1006 26.1729C51.7928 26.1729 49.9156 28.0436 49.9156 30.3514C49.9156 32.4343 51.4585 34.1636 53.4578 34.4721V48.6729C53.4578 51.7264 51.0278 54.2143 48.0513 54.2143L44.1106 54.195C41.2885 54.195 38.9678 51.9707 38.7235 49.1421C39.2956 48.885 39.6942 48.3 39.6942 47.625V43.5879C44.1556 42.7779 47.3892 38.8436 47.3892 34.215V33.0129C47.3892 32.3186 46.9649 31.7207 46.367 31.4764V22.2193C46.367 21.5443 45.8206 20.9914 45.1521 20.9914H44.612V20.7793C44.612 20.0721 44.0399 19.5 43.3328 19.5H43.1785C42.0085 19.5 41.0506 20.4514 41.0506 21.6407C41.0506 22.83 42.002 23.7686 43.1785 23.7686H43.3328C44.0399 23.7686 44.612 23.1964 44.612 22.4893V22.2771H45.0813V31.5021C44.5092 31.7593 44.1106 32.3443 44.1106 33.0193V34.0221C44.1106 37.3007 41.7063 40.1036 38.6399 40.3929C36.9428 40.56 35.3099 40.0136 34.0435 38.8564C32.7449 37.68 31.9992 35.9893 31.9992 34.215V33.0129C31.9992 32.3379 31.6006 31.7593 31.0285 31.4957V22.2771H31.4978V22.4893C31.4978 23.1964 32.0699 23.7686 32.777 23.7686H32.9313C34.1013 23.7686 35.0592 22.8171 35.0592 21.6279C35.0592 20.4386 34.0949 19.5 32.9185 19.5H32.7642C32.057 19.5 31.4849 20.0721 31.4849 20.7793V20.9914H30.9449C30.2763 20.9914 29.7299 21.5379 29.7299 22.2193V31.4829C29.132 31.7336 28.7078 32.325 28.7078 33.0193V34.2214C28.7078 38.85 31.9413 42.7843 36.4028 43.5943V47.6314C36.4028 48.3257 36.827 48.9236 37.4249 49.1679C37.682 52.6907 40.5749 55.4807 44.0913 55.4807L48.032 55.5C51.722 55.5 54.7306 52.4336 54.7306 48.6729V34.4721C56.7363 34.1636 58.2728 32.4343 58.2728 30.3514H58.2856ZM43.1785 22.4829C42.7156 22.4829 42.3363 22.1036 42.3363 21.6279C42.3363 21.1521 42.7156 20.7857 43.1785 20.7857H43.3263L43.3328 22.4829H43.1785ZM32.9185 20.7857C33.3813 20.7857 33.7606 21.165 33.7606 21.6407C33.7606 22.1164 33.3813 22.4829 32.9185 22.4829H32.7706L32.7642 20.7857H32.9185ZM36.6728 42.3343C32.8028 41.6529 29.9999 38.2393 29.9999 34.2214V33.0193C29.9999 32.8136 30.1606 32.64 30.3535 32.64C30.5463 32.64 30.707 32.8071 30.707 33.0193V34.2214C30.707 36.3493 31.607 38.3871 33.1692 39.8143C34.712 41.2157 36.692 41.8714 38.7556 41.6786C42.4778 41.3186 45.3899 37.9564 45.3899 34.0286V33.0257C45.3899 32.82 45.5506 32.6464 45.7435 32.6464C45.9363 32.6464 46.097 32.8136 46.097 33.0257V34.2279C46.097 38.2457 43.2878 41.6593 39.4178 42.3407C38.8263 42.4436 38.402 42.9514 38.402 43.5493V47.6379C38.402 47.8436 38.2413 48.0171 38.0485 48.0171C37.8556 48.0171 37.6949 47.85 37.6949 47.6379V43.5493C37.6949 42.9514 37.2642 42.4436 36.6792 42.3407L36.6728 42.3343ZM54.0942 33.2443C52.4935 33.2443 51.1949 31.9457 51.1949 30.3514C51.1949 28.7571 52.4935 27.4586 54.0942 27.4586C55.6949 27.4586 56.9935 28.7571 56.9935 30.3514C56.9935 31.9457 55.6949 33.2443 54.0942 33.2443Z" fill="#0075FF"/>
<path d="M54.1007 28.1078C52.86 28.1078 51.8442 29.1107 51.8442 30.3514C51.8442 31.5921 52.8535 32.595 54.1007 32.595C55.3478 32.595 56.3571 31.5921 56.3571 30.3514C56.3571 29.1107 55.3478 28.1078 54.1007 28.1078ZM54.1007 31.3028C53.5671 31.3028 53.13 30.8721 53.13 30.345C53.13 29.8178 53.5671 29.3871 54.1007 29.3871C54.6342 29.3871 55.0714 29.8178 55.0714 30.345C55.0714 30.8721 54.6342 31.3028 54.1007 31.3028Z" fill="#0075FF"/>
</g>
</g>
<defs>
<filter id="filter0_d_260_6663" x="0.5" y="0.5" width="86" height="86" filterUnits="userSpaceOnUse" color-interpolation-filters="sRGB">
<feFlood flood-opacity="0" result="BackgroundImageFix"/>
<feColorMatrix in="SourceAlpha" type="matrix" values="0 0 0 0 0 0 0 0 0 0 0 0 0 0 0 0 0 0 127 0" result="hardAlpha"/>
<feOffset dy="6"/>
<feGaussianBlur stdDeviation="7.5"/>
<feComposite in2="hardAlpha" operator="out"/>
<feColorMatrix type="matrix" values="0 0 0 0 0 0 0 0 0 0.447083 0 0 0 0 0.770833 0 0 0 0.18 0"/>
<feBlend mode="normal" in2="BackgroundImageFix" result="effect1_dropShadow_260_6663"/>
<feBlend mode="normal" in="SourceGraphic" in2="effect1_dropShadow_260_6663" result="shape"/>
</filter>
<clipPath id="clip0_260_6663">
<rect width="29.5714" height="36" fill="white" transform="translate(28.7142 19.5)"/>
</clipPath>
</defs>
</svg>
