<svg width="48" height="48" viewBox="0 0 48 48" fill="none" xmlns="http://www.w3.org/2000/svg">
<circle cx="24" cy="24" r="24" fill="#0075FF"/>
<path d="M12 36L13.6963 29.8403C12.6476 28.0323 12.0974 25.9848 12.1032 23.8916C12.1032 17.3327 17.467 12 24.0516 12C27.2493 12 30.2521 13.2376 32.5043 15.4848C34.7622 17.7319 36.0057 20.7205 36 23.8973C36 30.4563 30.6361 35.789 24.0458 35.789H24.0401C22.0401 35.789 20.0745 35.2871 18.3266 34.3403L12 36ZM18.6304 32.1901L18.9914 32.4068C20.5158 33.308 22.2636 33.7814 24.0458 33.7871H24.0516C29.5243 33.7871 33.9828 29.3555 33.9828 23.903C33.9828 21.2624 32.9513 18.7814 31.0773 16.9106C29.2034 15.0399 26.7049 14.0133 24.0516 14.0133C18.5788 14.0076 14.1203 18.4392 14.1203 23.8916C14.1203 25.7567 14.6418 27.576 15.639 29.1502L15.8739 29.5266L14.8711 33.1711L18.6304 32.1901Z" fill="white"/>
<path d="M12 36L13.6963 29.8403C12.6476 28.0323 12.0974 25.9848 12.1032 23.8916C12.1032 17.3327 17.467 12 24.0516 12C27.2493 12 30.2521 13.2376 32.5043 15.4848C34.7622 17.7319 36.0057 20.7205 36 23.8973C36 30.4563 30.6361 35.789 24.0458 35.789H24.0401C22.0401 35.789 20.0745 35.2871 18.3266 34.3403L12 36ZM18.6304 32.1901L18.9914 32.4068C20.5158 33.308 22.2636 33.7814 24.0458 33.7871H24.0516C29.5243 33.7871 33.9828 29.3555 33.9828 23.903C33.9828 21.2624 32.9513 18.7814 31.0773 16.9106C29.2034 15.0399 26.7049 14.0133 24.0516 14.0133C18.5788 14.0076 14.1203 18.4392 14.1203 23.8916C14.1203 25.7567 14.6418 27.576 15.639 29.1502L15.8739 29.5266L14.8711 33.1711L18.6304 32.1901Z" fill="url(#paint0_linear_36_3841)"/>
<path fill-rule="evenodd" clip-rule="evenodd" d="M21.0658 18.9184C20.8423 18.4222 20.6073 18.4108 20.3953 18.4051C20.2234 18.3994 20.0228 18.3994 19.8222 18.3994C19.6216 18.3994 19.3007 18.4736 19.0256 18.7701C18.7506 19.0667 17.9827 19.7853 17.9827 21.2511C17.9827 22.7112 19.0543 24.1257 19.2033 24.3253C19.3523 24.5249 21.2721 27.6218 24.3036 28.8139C26.8251 29.8063 27.3408 29.6066 27.8852 29.5553C28.4297 29.504 29.6503 28.8367 29.9024 28.1409C30.1488 27.445 30.1488 26.8519 30.0743 26.7264C29.9998 26.6009 29.7993 26.5268 29.5013 26.3785C29.2033 26.2302 27.7362 25.5116 27.4612 25.4089C27.1861 25.312 26.9855 25.2606 26.7907 25.5572C26.5901 25.8538 26.017 26.5211 25.8451 26.7207C25.6732 26.9203 25.4956 26.9431 25.1976 26.7949C24.8996 26.6466 23.9368 26.3329 22.7964 25.3177C21.9082 24.5306 21.3064 23.5553 21.1345 23.2587C20.9626 22.9622 21.1173 22.8025 21.2663 22.6542C21.3981 22.523 21.5643 22.3063 21.7133 22.1352C21.8623 21.9641 21.9139 21.8386 22.0113 21.639C22.1087 21.4393 22.0629 21.2682 21.9884 21.1199C21.9139 20.9774 21.3294 19.5059 21.0658 18.9184Z" fill="white"/>
<defs>
<linearGradient id="paint0_linear_36_3841" x1="24.0023" y1="35.9977" x2="24.0023" y2="12" gradientUnits="userSpaceOnUse">
<stop stop-color="#F9F9F9"/>
<stop offset="1" stop-color="white"/>
</linearGradient>
</defs>
</svg>
