
<svg width="35" height="35" viewBox="0 0 35 35" fill="none" xmlns="http://www.w3.org/2000/svg">
<path d="M14.7231 34.3473C14.1346 34.1928 13.5214 34.0991 12.9617 33.8722C11.2273 33.1694 9.93112 31.9957 9.24478 30.2087C9.03354 29.658 9.06395 29.2454 9.57356 28.8147C11.4435 27.239 13.4499 25.9017 15.7243 24.9844C15.9322 24.9005 16.0736 24.9145 16.2438 25.0674C16.829 25.5951 17.4216 26.1137 18.0233 26.6217C18.7055 27.1971 19.4502 27.6327 20.3889 27.5924C21.0991 27.562 21.7435 27.3121 22.318 26.9283C24.2784 25.6173 25.9535 24.0145 27.1051 21.9308C27.7701 20.7283 27.7068 19.5249 26.8454 18.4276C26.2651 17.6878 25.6379 16.9851 25.019 16.2765C24.8702 16.1056 24.8513 15.965 24.936 15.7562C25.9174 13.3348 27.3196 11.1862 29.0795 9.26359C29.2447 9.08359 29.4123 9.09263 29.6088 9.12879C30.6124 9.31373 31.436 9.83568 32.1585 10.5278C33.3035 11.6234 33.9989 12.9567 34.2183 14.534C34.229 14.608 34.2594 14.6795 34.2808 14.7518V16.0669C34.2635 16.1615 34.2422 16.256 34.2298 16.3513C34.137 17.0664 34.0893 17.7914 33.9463 18.4966C33.0265 23.0141 30.8902 26.8321 27.3451 29.8068C24.6302 32.0844 21.4994 33.4867 18.0151 34.0933C17.3608 34.2076 16.6967 34.2634 16.0374 34.3465H14.7248L14.7231 34.3473ZM33.0388 15.9691C33.0553 15 32.9731 14.451 32.6385 13.5353C32.1478 12.1939 31.316 11.1574 30.0009 10.5401C29.7896 10.4415 29.6589 10.4612 29.5274 10.6412C29.3458 10.8886 29.1526 11.1262 28.9693 11.3719C27.9854 12.6879 27.0443 14.0293 26.376 15.5442C26.2848 15.7513 26.3136 15.8672 26.4549 16.0291C26.9703 16.6242 27.5103 17.2045 27.9632 17.8457C28.9537 19.2479 29.0893 20.748 28.3438 22.3155C27.9213 23.204 27.3492 23.989 26.6982 24.7172C25.5212 26.0356 24.2735 27.276 22.7249 28.1653C20.9988 29.1566 19.308 29.1287 17.6904 27.9352C17.1019 27.5012 16.5577 27.0064 16.0136 26.5157C15.8246 26.3455 15.6889 26.334 15.476 26.4557C14.6697 26.916 13.8256 27.3154 13.048 27.8201C12.2071 28.3659 11.4238 29.0021 10.6166 29.5997C10.4859 29.6966 10.3791 29.8068 10.4884 29.9835C10.7407 30.392 10.9413 30.849 11.2594 31.1975C12.4299 32.4773 13.9193 33.1053 15.6421 33.0741C18.2649 33.0264 20.7415 32.3318 23.0553 31.1186C29.1682 27.913 32.3221 22.7388 33.0396 15.9683L33.0388 15.9691Z" fill="#FF0000"/>
<path d="M15.9048 0.679993C16.4646 0.764654 17.0284 0.829589 17.5841 0.937266C21.4407 1.68525 24.4762 3.70151 26.7284 6.91372C27.0037 7.30662 27.2281 7.7365 27.487 8.14173C27.5898 8.30283 27.598 8.4138 27.4566 8.56832C27.1106 8.94642 26.7876 9.34754 26.4284 9.77167C25.0705 6.93263 23.0107 4.80622 20.1576 3.50342C17.3079 2.20226 14.3439 1.9606 11.3668 2.91325C6.60684 4.43716 3.51217 7.68554 2.63596 12.6058C1.51481 18.9012 4.22563 23.4597 9.70069 26.5232C9.30451 26.8602 8.87874 27.2309 8.43981 27.5851C8.39049 27.6254 8.25405 27.6032 8.18336 27.5646C5.29664 25.9758 3.17846 23.6767 1.85346 20.6536C0.987116 18.6759 0.600796 16.598 0.693677 14.4453C0.839986 11.0556 2.01703 8.06775 4.27413 5.51968C6.36683 3.15737 8.95435 1.64333 12.0359 0.988227C12.5899 0.870687 13.1587 0.822191 13.7201 0.739996C13.8146 0.726022 13.9075 0.700542 14.0012 0.679993C14.6357 0.679993 15.2703 0.679993 15.904 0.679993H15.9048Z" fill="#FF0000"/>
<path d="M9.08434 18.2262C10.5104 18.2262 11.8987 18.2279 13.2862 18.2254C13.6051 18.2254 13.8961 18.2772 14.0942 18.5632C14.3942 18.9948 14.1846 19.6096 13.6807 19.7559C13.5673 19.7888 13.444 19.8027 13.3256 19.8027C11.4014 19.8052 9.47806 19.8052 7.55385 19.8044C7.47988 19.8044 7.4059 19.7929 7.3122 19.7855C7.22178 18.3528 7.54974 17.0714 8.55417 16.0349C8.96187 15.614 9.44271 15.2614 9.91287 14.908C10.5063 14.4617 11.1442 14.0737 11.722 13.6093C12.2678 13.1712 12.4289 12.5407 12.3459 11.8626C12.2522 11.0941 11.5486 10.5845 10.7036 10.6371C9.73368 10.6979 9.21749 11.247 9.20517 12.2226C9.2027 12.4068 9.19941 12.5983 9.15009 12.7734C9.04653 13.1424 8.70788 13.3586 8.32567 13.3356C7.91223 13.3101 7.61714 13.0627 7.56618 12.6525C7.32453 10.7135 8.57801 9.2077 10.3682 9.08934C11.0324 9.04578 11.6768 9.08359 12.2892 9.3647C13.4177 9.88253 14.0794 11.0357 14.0259 12.281C13.975 13.4852 13.4333 14.3762 12.4503 15.037C11.6973 15.5434 10.9502 16.0579 10.2178 16.593C9.67122 16.9925 9.23147 17.4848 9.08352 18.227L9.08434 18.2262Z" fill="#FF0000"/>
<path d="M20.8144 15.8648C21.1695 15.8845 21.4851 15.8812 21.7958 15.9239C22.1977 15.9798 22.4641 16.3201 22.4427 16.6982C22.4205 17.0944 22.1065 17.4232 21.707 17.4454C21.4259 17.461 21.1432 17.4487 20.8144 17.4487C20.8144 18.0117 20.8144 18.5435 20.8144 19.0753C20.8144 19.4247 20.7182 19.7189 20.3886 19.9022C19.8584 20.1965 19.2165 19.8809 19.1762 19.2767C19.1442 18.7967 19.1622 18.3142 19.1581 17.8325C19.1573 17.715 19.1581 17.5983 19.1581 17.4536C18.8754 17.4536 18.637 17.4536 18.3986 17.4536C17.5027 17.4536 16.6068 17.4585 15.71 17.452C14.9629 17.4462 14.5831 16.8906 14.8387 16.182C14.8938 16.03 14.9735 15.8828 15.0623 15.7464C16.3676 13.7392 17.6753 11.7328 18.9855 9.72803C19.3497 9.17074 19.7121 8.99073 20.1979 9.10005C20.5226 9.17321 20.7108 9.37705 20.7675 9.69844C20.7979 9.8694 20.8127 10.0453 20.8136 10.2196C20.8168 11.9605 20.8152 13.7014 20.8152 15.4423C20.8152 15.573 20.8152 15.7028 20.8152 15.8656L20.8144 15.8648ZM19.1302 15.8746V12.4372C18.3658 13.62 17.6515 14.7272 16.9109 15.8746H19.1302Z" fill="#FF0000"/>
</svg>
