
<svg width="280" height="280" viewBox="0 0 280 280" fill="none" xmlns="http://www.w3.org/2000/svg">
<path d="M38.1457 233.116C20.0756 213.415 8.09801 188.902 3.66046 162.54C-0.777078 136.178 2.51538 109.095 13.1398 84.564" stroke="#B2B2B2" stroke-width="4" stroke-linecap="round" stroke-linejoin="round"/>
<path d="M255.781 215.22C245.379 231.141 231.806 244.746 215.908 255.185C200.011 265.623 182.131 272.671 163.387 275.887C144.643 279.103 125.436 278.418 106.968 273.876C88.5005 269.333 71.1682 261.031 56.0543 249.487" stroke="#003756" stroke-width="4" stroke-linecap="round" stroke-linejoin="round"/>
<path d="M84.2854 13.0524C101.841 5.32235 120.818 1.34286 140 1.36865C216.359 1.36865 278.261 63.2679 278.261 139.624C278.267 149.65 277.186 159.647 275.038 169.441" stroke="#003756" stroke-width="4" stroke-linecap="round" stroke-linejoin="round"/>
<path d="M70.3123 23.7542C72.267 23.7542 73.8516 22.1696 73.8516 20.215C73.8516 18.2603 72.267 16.6758 70.3123 16.6758C68.3576 16.6758 66.7729 18.2603 66.7729 20.215C66.7729 22.1696 68.3576 23.7542 70.3123 23.7542Z" fill="#B2B2B2"/>
<path d="M51.0997 37.2773C53.0544 37.2773 54.639 35.6928 54.639 33.7381C54.639 31.7835 53.0544 30.1989 51.0997 30.1989C49.145 30.1989 47.5604 31.7835 47.5604 33.7381C47.5604 35.6928 49.145 37.2773 51.0997 37.2773Z" fill="#003756"/>
<path d="M34.4541 53.858C36.4088 53.858 37.9934 52.2734 37.9934 50.3188C37.9934 48.3641 36.4088 46.7796 34.4541 46.7796C32.4993 46.7796 30.9147 48.3641 30.9147 50.3188C30.9147 52.2734 32.4993 53.858 34.4541 53.858Z" fill="#B2B2B2"/>
<path d="M20.8568 73.0171C22.8115 73.0171 24.3961 71.4326 24.3961 69.4779C24.3961 67.5232 22.8115 65.9387 20.8568 65.9387C18.9021 65.9387 17.3174 67.5232 17.3174 69.4779C17.3174 71.4326 18.9021 73.0171 20.8568 73.0171Z" fill="#003756"/>
<path d="M46.9089 245.384C48.8636 245.384 50.4482 243.799 50.4482 241.845C50.4482 239.89 48.8636 238.305 46.9089 238.305C44.9542 238.305 43.3696 239.89 43.3696 241.845C43.3696 243.799 44.9542 245.384 46.9089 245.384Z" fill="#B2B2B2"/>
<path d="M263.348 205.62C265.302 205.62 266.887 204.035 266.887 202.081C266.887 200.126 265.302 198.541 263.348 198.541C261.393 198.541 259.808 200.126 259.808 202.081C259.808 204.035 261.393 205.62 263.348 205.62Z" fill="#B2B2B2"/>
<path d="M270.797 187.971C272.752 187.971 274.337 186.386 274.337 184.432C274.337 182.477 272.752 180.893 270.797 180.893C268.843 180.893 267.258 182.477 267.258 184.432C267.258 186.386 268.843 187.971 270.797 187.971Z" fill="#003756"/>
</svg>
