
<svg width="57" height="60" viewBox="0 0 57 60" fill="none" xmlns="http://www.w3.org/2000/svg">
<g clip-path="url(#clip0_1677_879)">
<path d="M33.3186 23.5523C32.9516 25.9556 31.771 27.7884 30.207 29.5184C29.6459 30.1403 29.7394 31.4471 29.7535 32.4384C29.7581 32.7423 30.4805 33.0438 30.885 33.3314C31.0089 33.4179 31.1702 33.4553 31.3151 33.5114C32.4396 33.9486 33.5992 34.7972 34.6769 34.7014C35.6822 34.6125 36.5472 33.4202 37.5688 32.8966C38.906 32.2116 40.3157 31.6458 41.7418 31.1666C42.0901 31.0497 42.878 31.3653 43.0135 31.6762C43.3198 32.3776 42.726 32.6604 42.0948 32.8264C37.6342 34.0024 34.878 36.8288 34.0293 41.3828C32.975 47.0287 37.2929 52.7586 42.9972 53.3711C49.141 54.0304 54.5273 49.5231 54.7213 43.5547C54.8896 38.4232 51.8037 34.2431 46.8476 32.8966C46.6605 32.8451 46.3987 32.8755 46.2912 32.7586C46.0083 32.45 45.7932 32.0807 45.5501 31.737C45.9382 31.5173 46.3613 31.0637 46.705 31.1198C48.9095 31.4728 50.8359 32.4734 52.4817 33.979C59.3245 40.2373 57.0919 51.4004 48.3484 54.505C47.5022 54.8066 47.3362 55.218 47.3385 56.0105C47.3479 59.8095 47.2006 59.9381 43.3899 59.9381C30.0644 59.9381 16.7365 59.9381 3.41097 59.9381C1.09186 59.9381 0.50507 59.3559 0.50507 57.0439C0.50507 53.5371 0.498057 50.0304 0.50507 46.5237C0.514421 41.9205 2.55767 38.9398 6.81483 37.2893C10.2234 35.9685 13.6366 34.6546 17.0358 33.308C17.4589 33.1397 18.1205 32.7867 18.1299 32.5015C18.1602 31.578 18.2795 30.3109 17.7535 29.7803C16.11 28.1204 14.8476 26.3554 14.4057 24.0316C14.359 23.7908 14.0013 23.5079 13.7324 23.4237C10.4431 22.3904 9.41214 19.9077 11.0112 16.8966C11.2146 16.5132 11.2239 16.0105 11.2567 15.557C11.3993 13.6213 11.2754 11.6295 11.6868 9.75454C13.0171 3.68324 18.6325 -0.358841 24.7973 0.101708C30.9107 0.557582 35.8037 5.46232 36.3017 11.6505C36.3671 12.4641 36.3788 13.2846 36.3835 14.1029C36.3905 15.3396 36.456 16.4921 37.0615 17.6867C38.1322 19.7978 36.8791 22.3928 34.6278 23.1946C34.228 23.3372 33.8072 23.4214 33.3186 23.5523ZM8.64066 58.1005C8.64066 57.6517 8.64066 57.2706 8.64066 56.8896C8.64066 54.0444 8.643 51.2017 8.64066 48.3565C8.64066 47.6692 8.62897 46.8954 9.55475 46.9141C10.401 46.9305 10.401 47.6786 10.401 48.3191C10.4034 51.1642 10.401 54.007 10.4057 56.8521C10.4057 57.2636 10.4478 57.6727 10.4712 58.0865H18.906C19.6377 53.7195 20.3929 49.4296 21.0381 45.1233C21.1246 44.5482 20.65 43.889 20.4303 43.2531C18.3917 44.2069 17.7979 44.0246 16.9539 42.3554C16.7085 41.8691 16.4653 41.3828 16.2199 40.8966C15.4764 39.4121 14.733 37.9299 13.9709 36.4103C11.6588 37.3033 9.47994 38.1356 7.30811 38.9819C3.94867 40.2934 2.32155 42.6382 2.30519 46.2198C2.29116 49.8036 2.30051 53.3875 2.30519 56.9714C2.30519 57.3431 2.33792 57.7148 2.35428 58.1005H8.643H8.64066ZM29.1503 12.1789C26.9224 13.0766 24.8978 14.1122 22.747 14.6967C20.6009 15.2811 18.3309 15.4121 16.0562 15.751C16.0562 18.0608 15.9417 20.4781 16.0819 22.879C16.3297 27.1292 19.8107 30.1052 24.2269 30.007C28.2269 29.9182 31.4811 26.671 31.5957 22.5704C31.6611 20.235 31.6284 17.8972 31.605 15.5617C31.6003 15.2017 31.5045 14.7645 31.2824 14.5003C30.5623 13.64 29.7675 12.8428 29.1503 12.1812V12.1789ZM34.2421 15.3676C35.0276 10.0281 33.6576 5.74753 28.9843 3.18996C24.9633 0.992416 20.9118 1.33607 17.2485 4.1134C13.5641 6.90475 12.6617 10.8182 13.1877 15.5453C13.7558 15.0941 14.1158 14.7458 14.5343 14.491C15.0416 14.1824 15.605 13.7125 16.1287 13.7312C20.4303 13.8855 24.3531 12.7586 28.0188 10.5471C28.4677 10.2759 29.4285 10.173 29.7301 10.4512C31.0065 11.6295 32.1287 12.9784 33.2999 14.2712C33.6249 14.6289 33.9288 15.0029 34.2421 15.37V15.3676ZM37.4496 58.166C37.4496 56.616 37.508 55.2554 37.4168 53.9042C37.3864 53.446 37.0919 52.8849 36.7389 52.5856C34.4899 50.6827 32.8254 48.3752 32.4443 45.446C32.1731 43.377 32.3929 41.2472 32.3929 39.4214C32.0679 40.0666 31.5793 41.0322 31.0977 42C30.0737 44.0526 29.7067 44.1976 27.6027 43.3793C26.8803 44.0246 26.6161 44.7703 26.8616 45.7616C27.1328 46.8533 27.3221 47.9778 27.3923 49.0976C27.418 49.5138 27.1047 50.2221 26.7868 50.3343C26.0667 50.5845 25.8096 49.9766 25.702 49.3337C25.4799 48.0012 25.2345 46.6756 25.0054 45.3828C22.913 45.1561 22.9037 45.1537 22.567 47.0029C22.2818 48.5716 22.02 50.145 21.7558 51.7183C21.4051 53.813 21.0661 55.9077 20.7108 58.0655H27.1608C26.9411 56.7259 26.7564 55.4986 26.532 54.2759C26.4174 53.647 26.38 53.0345 27.1445 52.8802C27.9954 52.7095 28.1708 53.3618 28.2783 54.0187C28.4583 55.1315 28.5986 56.256 28.8557 57.3524C28.9282 57.6634 29.335 58.1239 29.5968 58.1286C32.1591 58.187 34.7237 58.1637 37.4472 58.1637L37.4496 58.166ZM27.8061 30.9819C25.2111 32.062 22.6301 31.9544 19.8505 31.01C19.9487 31.9311 19.785 32.8031 20.1427 33.3174C21.2812 34.9562 22.6138 36.4641 23.9323 38.0959C25.0568 36.7072 26.0176 35.384 27.1258 34.1987C28.0188 33.2449 28.0071 32.2233 27.8061 30.9819ZM18.7821 42.0795C20.1474 41.1093 21.3701 40.242 22.6512 39.3302C21.4519 37.8457 20.3461 36.4477 19.1959 35.0871C19.0135 34.872 18.5787 34.6616 18.3496 34.7341C17.4449 35.0123 16.5752 35.405 15.6377 35.7768C16.7085 37.9205 17.7114 39.9287 18.7821 42.0795ZM29.0848 42.0818C30.1626 39.917 31.1819 37.8691 32.2269 35.7697C31.2427 35.3793 30.4642 35.0263 29.6529 34.7762C29.3934 34.6967 28.9259 34.7879 28.7646 34.9772C27.5653 36.3799 26.4197 37.827 25.2041 39.3256C26.532 40.2677 27.7546 41.1374 29.0848 42.0818ZM39.2988 58.0514H45.5244V55.4401C43.4016 55.0894 41.3607 54.7528 39.2988 54.4138V58.0514ZM21.7535 42.2244C22.6021 43.6505 22.6091 43.7253 24.6173 43.5009C25.1901 43.4378 25.6974 42.8019 26.3029 42.3811C23.4811 40.2256 24.3718 40.2513 21.7535 42.2244ZM14.2117 16.9831C12.7646 17.2145 11.8692 18.2455 12.0001 19.4822C12.1287 20.6885 13.0077 21.495 14.2117 21.495V16.9831ZM33.4542 21.5769C34.9598 21.3127 35.7219 20.3963 35.6331 19.0871C35.5512 17.8691 34.7213 17.0509 33.4542 16.969V21.5769Z" fill="url(#paint0_linear_1677_879)"/>
<path d="M35.2256 42.9959C35.2373 37.9275 39.3121 33.9018 44.3992 33.9369C49.4044 33.9719 53.4395 38.0514 53.4138 43.0497C53.3881 48.0549 49.3436 52.111 44.3477 52.1414C39.3238 52.1718 35.2162 48.0526 35.2279 42.9959H35.2256ZM44.2729 50.3553C48.3384 50.3694 51.6464 47.1058 51.6628 43.0614C51.6791 39.0146 48.3968 35.6856 44.3594 35.6552C40.3524 35.6248 36.9813 38.9562 36.9556 42.9749C36.9299 47.0123 40.2308 50.339 44.2729 50.3553Z" fill="url(#paint1_linear_1677_879)"/>
<path d="M43.9835 43.9193C44.9818 42.8229 45.8912 41.813 46.8123 40.8147C47.2541 40.3378 47.7942 39.8726 48.3997 40.4454C49.0122 41.0251 48.568 41.5652 48.0934 42.0257C46.9502 43.1338 45.7977 44.2303 44.6755 45.3594C44.0583 45.9813 43.4996 46.014 42.8871 45.3758C42.3237 44.789 41.6644 44.2747 41.1875 43.6271C40.9841 43.3513 41.1337 42.8136 41.1244 42.3951C41.5429 42.4021 42.0455 42.2618 42.3611 42.4465C42.8801 42.7481 43.2775 43.2577 43.9835 43.9217V43.9193Z" fill="url(#paint2_linear_1677_879)"/>
</g>
<defs>
<linearGradient id="paint0_linear_1677_879" x1="0.501953" y1="29.667" x2="56.501" y2="29.667" gradientUnits="userSpaceOnUse">
<stop stop-color="#0D51DA"/>
<stop offset="0.770833" stop-color="#0079FF"/>
</linearGradient>
<linearGradient id="paint1_linear_1677_879" x1="35.2256" y1="42.9373" x2="53.4139" y2="42.9373" gradientUnits="userSpaceOnUse">
<stop stop-color="#0D51DA"/>
<stop offset="0.770833" stop-color="#0079FF"/>
</linearGradient>
<linearGradient id="paint2_linear_1677_879" x1="41.0801" y1="42.9788" x2="48.6985" y2="42.9788" gradientUnits="userSpaceOnUse">
<stop stop-color="#0D51DA"/>
<stop offset="0.770833" stop-color="#0079FF"/>
</linearGradient>
<clipPath id="clip0_1677_879">
<rect width="56" height="59.8667" fill="white" transform="translate(0.5 0.0666504)"/>
</clipPath>
</defs>
</svg>
