
<svg width="57" height="56" viewBox="0 0 57 56" fill="none" xmlns="http://www.w3.org/2000/svg">
<g clip-path="url(#clip0_1677_912)">
<path d="M43.4762 50.3544C43.4762 51.6931 43.4543 53.0011 43.4827 54.307C43.5024 55.2367 43.1043 55.6173 42.1703 55.5976C39.0598 55.5385 39.716 55.9345 38.6923 53.2789C38.3401 52.3646 38.2111 51.1112 37.5417 50.6409C36.8702 50.1706 35.6496 50.4659 34.6697 50.4659C30.0039 50.4572 25.3381 50.4922 20.6746 50.4375C19.6968 50.4266 19.1434 50.63 18.8831 51.6493C18.614 52.7015 18.2247 53.7405 17.7412 54.7117C17.5466 55.1011 16.9844 55.5189 16.56 55.5495C13.5239 55.7835 13.5217 55.7529 13.5217 52.7583C13.5217 52.6862 13.513 52.6118 13.5217 52.5396C13.7033 51.144 13.4845 50.2013 11.8462 49.6238C9.89718 48.9369 8.78816 47.2089 8.36818 45.1593C7.68133 41.8081 7.0251 38.4505 6.37982 35.0906C6.24639 34.3972 6.03202 34.0013 5.2183 33.8066C2.47747 33.146 0.550358 30.6042 0.500048 27.8131C0.449737 24.9213 2.25654 22.3817 5.05643 21.5964C5.89421 21.3624 6.14576 21.0277 6.23982 20.1571C7.42759 9.16755 16.8247 0.612568 27.9018 0.367578C39.2129 0.116025 48.89 8.12852 50.6268 19.1815C50.6378 19.2537 50.664 19.3259 50.6596 19.3981C50.5875 20.763 51.2043 21.3864 52.5496 21.848C55.1526 22.7405 56.675 25.4288 56.4825 28.1609C56.2944 30.8186 54.3804 33.2029 51.7621 33.8131C50.9331 34.0056 50.7428 34.4212 50.6115 35.1081C50.0209 38.2186 49.3735 41.3204 48.8091 44.4352C48.2535 47.4976 46.5386 49.4882 43.474 50.3544H43.4762ZM49.0388 21.3689C48.5991 11.2215 39.552 1.15723 26.5697 2.16563C16.77 2.92685 6.83699 13.1705 8.04007 21.3689C10.6518 21.9617 12.2377 23.611 13.128 26.1134C14.6264 30.3264 16.2254 34.5065 17.7872 38.6976C17.8966 38.9907 18.0409 39.2707 18.1962 39.6164C25.0931 36.8712 31.9441 36.8733 38.8345 39.6229C38.9964 39.2161 39.1342 38.8879 39.2588 38.5576C40.7616 34.5372 42.3409 30.5451 43.7321 26.4875C44.6443 23.8254 46.1973 21.9945 49.0431 21.3711L49.0388 21.3689ZM28.4705 48.7072C32.8432 48.7072 37.2158 48.7138 41.5863 48.7072C44.6924 48.7007 46.4642 47.2242 47.0592 44.1749C47.7351 40.7101 48.4285 37.2496 49.0803 33.7825C49.2531 32.8594 49.5616 32.3366 50.6596 32.2448C52.4665 32.0916 53.7614 31.0373 54.422 29.3289C55.0673 27.6599 54.7764 26.0938 53.6455 24.7201C51.3727 21.9574 47.0679 22.7076 45.773 26.1178C43.9662 30.8776 42.2206 35.6615 40.4444 40.4344C39.9304 41.8147 39.7379 41.8978 38.3554 41.3335C31.8019 38.6539 25.2485 38.6408 18.6906 41.316C17.2447 41.9066 17.0632 41.8256 16.5272 40.3885C14.7642 35.6506 13.0186 30.9061 11.2381 26.1747C10.3544 23.8298 8.21725 22.6683 5.8439 23.167C3.75273 23.6067 2.20623 25.5972 2.25435 27.789C2.30466 30.0945 3.98241 32.0107 6.38857 32.2601C7.42978 32.3673 7.73383 32.8507 7.90226 33.7344C8.55848 37.2015 9.25408 40.6619 9.9278 44.1268C10.5315 47.2395 12.2902 48.7072 15.4663 48.7116C19.8018 48.7182 24.1372 48.7116 28.4727 48.7116L28.4705 48.7072ZM15.276 53.6792C16.3019 53.8236 16.9538 52.7562 17.3038 50.5294H15.3329C15.311 50.9428 15.2826 51.2971 15.2782 51.6515C15.2695 52.334 15.276 53.0165 15.276 53.6792ZM41.7131 50.5556H39.5629C39.9391 51.5815 40.2585 52.5374 40.6566 53.4627C40.7354 53.6442 41.1072 53.7799 41.3456 53.7842C41.4659 53.7842 41.6891 53.4496 41.6978 53.2593C41.7372 52.3909 41.7153 51.5203 41.7153 50.5578L41.7131 50.5556Z" fill="url(#paint0_linear_1677_912)"/>
<path d="M28.7348 13.6692C28.947 14.0345 29.297 14.3801 29.3538 14.7695C29.916 18.6915 31.6397 20.4064 35.5945 21.0102C35.9533 21.0649 36.2486 21.5417 36.5723 21.8217C36.2376 22.1257 35.9358 22.6485 35.5661 22.7032C31.7031 23.2632 29.9882 24.9891 29.3407 28.9877C29.2838 29.3377 28.7917 29.6176 28.5029 29.9304C28.2098 29.622 27.7111 29.3486 27.6542 29.003C26.9761 24.9213 25.4865 23.436 21.3326 22.6989C20.9892 22.6376 20.7245 22.1323 20.4248 21.8326C20.7464 21.5483 21.0351 21.067 21.3916 21.0102C25.388 20.3714 27.1052 18.6631 27.6455 14.7782C27.7001 14.3757 28.0939 14.0214 28.3301 13.6451C28.4657 13.6539 28.6014 13.6605 28.737 13.6692H28.7348ZM28.492 19.4462C27.792 20.1461 26.7071 21.2355 26.0902 21.8523C26.7946 22.526 27.9211 23.6066 28.5357 24.195C29.192 23.576 30.3075 22.526 30.9419 21.9289C30.231 21.207 29.1526 20.1155 28.492 19.4462Z" fill="url(#paint1_linear_1677_912)"/>
</g>
<defs>
<linearGradient id="paint0_linear_1677_912" x1="0.499024" y1="27.6901" x2="56.4989" y2="27.6901" gradientUnits="userSpaceOnUse">
<stop stop-color="#0D51DA"/>
<stop offset="0.770833" stop-color="#0079FF"/>
</linearGradient>
<linearGradient id="paint1_linear_1677_912" x1="20.4248" y1="21.6967" x2="36.5723" y2="21.6967" gradientUnits="userSpaceOnUse">
<stop stop-color="#0D51DA"/>
<stop offset="0.770833" stop-color="#0079FF"/>
</linearGradient>
<clipPath id="clip0_1677_912">
<rect width="56" height="55.2781" fill="white" transform="translate(0.5 0.360962)"/>
</clipPath>
</defs>
</svg>