
<svg width="57" height="56" viewBox="0 0 57 56" fill="none" xmlns="http://www.w3.org/2000/svg">
<g clip-path="url(#clip0_1677_887)">
<path d="M52.4565 30.0523C44.001 30.0501 35.5478 30.0523 27.0924 30.0523C26.8376 30.0523 26.5262 29.9652 26.3433 30.0806C25.9927 30.3027 25.7162 30.6424 25.4091 30.932C25.7118 31.189 25.9818 31.5069 26.3259 31.6789C26.5589 31.7943 26.8964 31.705 27.186 31.705C35.6044 31.705 44.0228 31.705 52.4412 31.705C54.3749 31.705 54.8496 32.2973 54.4838 34.268H2.22261C2.01792 32.1253 2.39246 31.705 4.41758 31.705C10.297 31.705 16.1742 31.705 22.0535 31.705C22.3802 31.705 22.7612 31.7943 23.0182 31.6593C23.3209 31.4982 23.6627 31.1607 23.7107 30.8558C23.7455 30.6424 23.3601 30.2679 23.0813 30.1263C22.8157 29.9913 22.4433 30.0523 22.1189 30.0523C19.1443 30.0479 16.1676 30.0523 13.1931 30.0479C12.812 30.0479 12.431 30.0153 12.0673 29.9978C11.8212 27.2432 11.3378 26.8077 8.64856 26.8077C7.95827 26.8077 7.27017 26.8077 6.57989 26.8077C3.9603 26.8077 3.46817 27.2672 3.3005 29.8367C3.29614 29.8999 3.23299 29.9587 3.19598 30.0174C1.25143 30.662 0.530658 31.5483 0.506705 33.3317C0.500172 33.839 0.524125 34.3486 0.50235 34.856C0.465332 35.6921 0.866001 36.0536 1.6804 36.0405C2.45997 36.0275 3.23953 36.0384 4.03215 36.0384C4.06264 36.3868 4.07788 36.5653 4.0953 36.7439C4.26951 38.7037 5.2211 39.5943 7.1896 39.6183C8.49613 39.6335 9.80266 39.6183 11.1092 39.6226C11.7211 39.6248 12.3765 39.6008 12.3526 38.7886C12.3286 37.9786 11.6579 38.0069 11.0569 38.0112C9.82226 38.0178 8.58976 38.0221 7.35509 38.0112C5.96146 37.9982 5.61088 37.5452 5.86783 36.1189H50.9823C51.0541 37.6759 50.7493 38.0112 49.2881 38.0134C42.0304 38.0178 34.7726 38.0134 27.517 38.0134C23.4537 38.0134 19.3882 38.0156 15.3249 38.0112C14.7087 38.0112 14.0532 38.0352 14.0598 38.8278C14.0663 39.6313 14.7457 39.6248 15.3467 39.6226C16.5443 39.6226 17.7594 39.7554 18.9353 39.5943C21.1259 39.2938 22.439 40.7854 24.2267 41.8067C23.5169 42.0745 23.016 42.2531 22.5195 42.4512C19.8978 43.4986 20.2941 42.8759 20.2505 45.613C20.2462 45.8199 20.183 46.0268 20.1351 46.2968C17.9249 46.2968 15.7495 46.2815 13.5763 46.3011C12.1065 46.3142 11.303 47.1134 11.2355 48.5832C11.2159 49.0187 11.3073 49.4717 11.2072 49.8832C11.1114 50.2861 10.9263 50.7564 10.6236 51.0047C9.58926 51.8495 9.17117 52.9231 9.55877 54.0641C9.92242 55.1355 10.911 55.8649 12.0216 55.8824C13.1691 55.902 14.2405 55.1376 14.5889 54.051C14.9547 52.9122 14.5432 51.7842 13.4784 51.009C12.9819 50.6475 12.5551 49.0253 12.9775 48.3807C13.1887 48.0606 13.8834 47.9343 14.3603 47.9321C22.5609 47.906 30.7616 47.9125 38.9622 47.9125C39.7614 47.9125 40.5605 47.8799 41.3553 47.9343C41.6275 47.9539 42.0129 48.1281 42.124 48.3459C42.5203 49.1276 42.087 50.5866 41.3597 51.1919C40.1773 52.174 40.0357 53.8268 41.0374 54.9656C42.0086 56.0718 43.633 56.1916 44.7458 55.24C45.865 54.284 46.0937 52.3547 44.9221 51.4946C43.8464 50.7041 43.816 49.8114 43.8312 48.7182C43.853 47.1003 43.0451 46.3099 41.4381 46.2968C39.6612 46.2815 37.88 46.2293 36.1053 46.3142C34.8837 46.373 33.8689 46.0551 32.8716 45.3604C31.3212 44.2826 29.6946 43.3114 27.9329 42.1878C28.7299 41.8916 29.3222 41.7218 29.8688 41.4605C33.1111 39.9122 36.5059 39.3874 40.0967 39.5812C43.3173 39.7554 46.5531 39.6357 49.7824 39.6074C51.4809 39.5921 52.4695 38.6427 52.6546 36.966C52.6851 36.6851 52.7178 36.4042 52.7591 36.0362C53.5953 36.0362 54.3967 36.1015 55.1784 36.0079C55.542 35.9643 56.0712 35.69 56.1823 35.3938C57.2492 32.5107 55.5137 30.0545 52.4565 30.0545V30.0523ZM6.21841 28.4496C7.15911 28.4453 8.09764 28.4453 9.03834 28.4496C10.3666 28.454 10.3993 28.4953 10.2316 29.9935H5.11875C4.83785 28.6086 4.95108 28.454 6.22059 28.4496H6.21841ZM13.3869 53.3259C13.3869 54.0619 12.7903 54.6608 12.0521 54.6608C11.3139 54.6608 10.7172 54.0641 10.7172 53.3259C10.7172 52.5877 11.3139 51.9911 12.0521 51.9911C12.7903 51.9911 13.3869 52.5877 13.3869 53.3259ZM44.3146 53.3259C44.3146 54.0619 43.718 54.6608 42.9798 54.6608C42.2416 54.6608 41.6449 54.0641 41.6449 53.3259C41.6449 52.5877 42.2416 51.9911 42.9798 51.9911C43.718 51.9911 44.3146 52.5877 44.3146 53.3259ZM28.388 44.4067C29.1676 45.0665 30.1061 45.5368 30.9162 46.2924H22.0013C21.5549 44.8705 22.1341 44.3936 23.273 43.8449C25.2066 42.9129 26.7766 43.0414 28.388 44.4067ZM24.1135 39.6596H29.4202C27.4364 41.1904 26.082 41.2166 24.1135 39.6596Z" fill="url(#paint0_linear_1677_887)"/>
<path d="M1.56453 4.47266C2.75129 4.57718 3.96854 4.62727 5.1466 4.48573C6.93872 4.27015 8.22129 4.93212 9.28611 6.61972C8.50655 7.3492 7.68344 8.0569 6.93218 8.83647C5.39266 10.4326 5.37742 12.584 6.90605 14.1954C7.2697 14.5787 7.80103 14.8029 8.25613 15.0991C8.21258 15.2777 8.16903 15.4562 8.12548 15.6348C7.72263 15.9418 7.2218 16.1813 6.94743 16.5776C6.76234 16.8455 6.72532 17.4639 6.91041 17.7034C8.36719 19.574 10.658 20.1183 12.7876 19.121C13.4779 19.9289 14.4012 20.4994 15.405 19.807C16.1824 19.2713 17.0425 18.5178 17.3104 17.6838C17.5456 16.9522 17.0099 15.9723 16.7769 14.9358C17.6806 15.846 18.6757 16.4492 19.7623 15.5498C20.4439 14.988 21.2409 14.289 21.4477 13.5095C21.6437 12.7691 21.1407 11.8415 20.9599 11.0619C23.1702 12.1659 23.4794 12.1115 25.13 10.2519C26.0119 9.25673 25.9552 8.66444 24.8099 6.99862C25.7266 5.15423 25.633 4.48137 24.1631 2.32342C22.972 0.57485 22.9546 0.572673 21.4564 1.99679C21.3301 2.11655 21.1908 2.2189 21.0209 2.36044C20.7531 2.11002 20.5135 1.89662 20.2849 1.67016C18.1727 -0.409401 16.1628 -0.407224 14.0637 1.69193C12.89 2.86563 11.7293 4.05239 10.5055 5.29142C9.78695 4.60985 9.18159 3.99142 8.52397 3.43397C8.23871 3.19226 7.84893 2.93967 7.5027 2.93096C5.51025 2.88305 3.51343 2.87216 1.52316 2.94184C1.18128 2.95491 0.854649 3.41873 0.521484 3.6735C0.867714 3.95223 1.19652 4.44 1.56453 4.47266ZM14.5514 18.4024C13.8067 17.8058 13.859 17.6882 15.3332 16.606C15.969 17.2527 15.9472 17.305 14.5514 18.4024ZM19.4705 13.5835C19.0829 13.8949 18.7432 14.7964 18.0551 13.7185C18.495 13.2917 18.9261 12.8736 19.3573 12.4577C20.1847 12.817 19.9213 13.2242 19.4727 13.5857L19.4705 13.5835ZM23.2943 9.75539C22.9568 10.2192 22.5648 10.3542 22.2295 9.63127C22.678 9.2502 23.1353 8.85824 23.6753 8.40096C24.5311 9.08035 23.5795 9.36561 23.2943 9.75757V9.75539ZM22.8087 3.3534C24.1435 4.93212 24.1326 5.34368 22.6084 6.86796C19.2484 10.2279 15.8884 13.5879 12.5285 16.9478C11.0064 18.4699 10.6427 18.483 8.98343 17.1656C13.5737 12.5797 18.1749 7.98287 22.8087 3.35558V3.3534ZM15.6968 2.39964C16.5591 1.55475 17.735 1.58523 18.6496 2.36262C19.0611 2.7132 19.4357 3.10516 19.7514 3.40784C16.1911 6.96813 12.6853 10.4762 8.99215 14.1693C8.70689 13.8252 8.38896 13.4311 8.05798 13.0478C7.21962 12.0832 7.17389 10.9356 8.0754 10.0145C10.5905 7.45155 13.1317 4.91253 15.6968 2.39964Z" fill="url(#paint1_linear_1677_887)"/>
<path d="M31.5843 23.2431C35.2839 23.2496 38.9836 23.2431 42.6832 23.2431C46.4548 23.2431 50.2263 23.2496 54 23.2387C55.3762 23.2344 56.2341 22.5245 56.2407 21.2702C56.2711 16.2662 56.2668 11.26 56.2407 6.25602C56.2341 5.06272 55.4328 4.30058 54.2395 4.26792C53.007 4.23308 51.768 4.19824 50.542 4.29405C50.1609 4.32453 49.5599 4.72956 49.5033 5.04312C49.3705 5.77478 50.0063 5.86841 50.5921 5.86624C51.572 5.86624 52.5519 5.90326 53.5296 5.85535C54.307 5.81833 54.6336 6.06004 54.6271 6.89404C54.5966 11.4647 54.5988 16.0332 54.6271 20.6039C54.6315 21.427 54.3266 21.6535 53.5383 21.6513C46.3219 21.6295 39.1034 21.6273 31.8848 21.6513C31.066 21.6535 30.7372 21.4662 30.7459 20.5625C30.7917 16.0289 30.7873 11.4952 30.7459 6.96154C30.7372 6.08835 31.0159 5.84011 31.863 5.84882C35.1272 5.88801 38.3913 5.86406 41.6554 5.86406C43.1797 5.86406 44.7018 5.87713 46.2261 5.85753C46.8424 5.84882 47.7047 6.06004 47.7286 5.08667C47.7526 4.11331 46.9142 4.25921 46.2784 4.25921C41.3811 4.25485 36.4859 4.25267 31.5886 4.25921C29.8444 4.25921 29.1215 4.94949 29.1149 6.67628C29.0997 11.3907 29.0997 16.1072 29.1149 20.8216C29.1193 22.5571 29.8335 23.2409 31.5799 23.2431H31.5843Z" fill="url(#paint2_linear_1677_887)"/>
<path d="M47.3001 13.1545C46.9365 12.9629 46.4509 12.5513 46.2266 12.6623C45.8956 12.8235 45.6844 13.3396 45.5363 13.7468C45.3578 14.2324 45.299 14.7615 45.127 15.5585C44.4454 14.069 43.8988 12.8518 43.3348 11.6454C42.7708 10.4391 42.1546 10.3411 41.4012 11.4364C40.6107 12.5883 39.8181 13.5399 38.198 13.2481C37.9476 13.2024 37.5905 13.7577 37.2812 14.0342C37.5687 14.2955 37.8387 14.7593 38.1457 14.7833C39.609 14.9009 41.1682 15.1404 41.976 13.3918C42.0065 13.3265 42.1437 13.3113 42.2635 13.259C43.0452 14.964 43.7791 16.6581 44.6065 18.3066C44.7938 18.6811 45.3033 18.8945 45.6648 19.1819C45.9152 18.8205 46.2854 18.4916 46.3921 18.0932C46.6316 17.2047 46.7383 16.2814 46.906 15.3386C47.7175 15.7726 48.4376 15.4692 49.0661 14.4283C49.8958 14.5851 50.5425 14.7615 51.198 14.8138C51.7946 14.8617 52.5785 14.9531 52.6308 14.0756C52.6896 13.0979 51.8665 13.222 51.2263 13.1784C51.1588 13.1741 51.0934 13.1262 50.9454 13.063C50.8887 12.4947 50.9062 11.8654 50.7428 11.284C50.6318 10.8876 50.266 10.5654 50.0134 10.2083C49.6867 10.4456 49.2556 10.6155 49.0531 10.9312C48.5479 11.7195 48.145 12.5731 47.679 13.4419C47.5223 13.3221 47.4221 13.2198 47.3001 13.1545Z" fill="url(#paint3_linear_1677_887)"/>
<path d="M33.6859 11.8546C33.8318 11.8546 33.9755 11.8546 34.1214 11.8546C34.3762 11.8546 34.6832 11.946 34.8705 11.835C35.2516 11.6063 35.5673 11.2688 35.9092 10.977C35.576 10.7135 35.2777 10.3542 34.901 10.2127C34.5504 10.082 34.1127 10.1866 33.7142 10.1822C33.1045 10.1757 32.4534 10.2083 32.4425 11.0031C32.4316 11.7958 33.0697 11.8633 33.6859 11.8567V11.8546Z" fill="url(#paint4_linear_1677_887)"/>
<path d="M34.1535 8.82767C34.8286 8.83202 35.8477 9.11292 35.8673 8.05464C35.8869 6.89618 34.809 7.27943 34.1209 7.17273C33.4458 7.26419 32.4354 6.93755 32.4594 8.03939C32.4834 9.13034 33.485 8.82331 34.1535 8.82767Z" fill="url(#paint5_linear_1677_887)"/>
<path d="M33.4968 14.7942C33.9236 14.9314 34.4571 14.9227 34.8883 14.7942C35.2672 14.681 35.5699 14.313 35.9052 14.0582C35.5655 13.773 35.2498 13.4529 34.8774 13.2177C34.7228 13.1197 34.4528 13.2025 34.2372 13.2003C33.9846 13.2003 33.6841 13.1132 33.4881 13.2177C33.1005 13.4246 32.7717 13.7403 32.4189 14.0103C32.7739 14.2825 33.094 14.6658 33.4947 14.7942H33.4968Z" fill="url(#paint6_linear_1677_887)"/>
<path d="M34.0691 17.8079C34.3587 17.8079 34.694 17.9037 34.927 17.7883C35.2929 17.6076 35.5868 17.2853 35.9135 17.0218C35.5955 16.7518 35.3125 16.3424 34.9488 16.2466C34.4414 16.1138 33.8448 16.1094 33.3396 16.2488C32.9868 16.3468 32.7255 16.7736 32.4229 17.0545C32.719 17.3049 32.9868 17.6054 33.3222 17.7861C33.5182 17.8928 33.8187 17.8057 34.0713 17.8079H34.0691Z" fill="url(#paint7_linear_1677_887)"/>
</g>
<defs>
<linearGradient id="paint0_linear_1677_887" x1="0.5" y1="41.1825" x2="56.498" y2="41.1825" gradientUnits="userSpaceOnUse">
<stop stop-color="#0D51DA"/>
<stop offset="0.770833" stop-color="#0079FF"/>
</linearGradient>
<linearGradient id="paint1_linear_1677_887" x1="0.521484" y1="10.0038" x2="25.7367" y2="10.0038" gradientUnits="userSpaceOnUse">
<stop stop-color="#0D51DA"/>
<stop offset="0.770833" stop-color="#0079FF"/>
</linearGradient>
<linearGradient id="paint2_linear_1677_887" x1="29.1035" y1="13.6326" x2="56.2619" y2="13.6326" gradientUnits="userSpaceOnUse">
<stop stop-color="#0D51DA"/>
<stop offset="0.770833" stop-color="#0079FF"/>
</linearGradient>
<linearGradient id="paint3_linear_1677_887" x1="37.2813" y1="14.6449" x2="52.6338" y2="14.6449" gradientUnits="userSpaceOnUse">
<stop stop-color="#0D51DA"/>
<stop offset="0.770833" stop-color="#0079FF"/>
</linearGradient>
<linearGradient id="paint4_linear_1677_887" x1="32.4424" y1="11.0086" x2="35.9092" y2="11.0086" gradientUnits="userSpaceOnUse">
<stop stop-color="#0D51DA"/>
<stop offset="0.770833" stop-color="#0079FF"/>
</linearGradient>
<linearGradient id="paint5_linear_1677_887" x1="32.459" y1="8.0092" x2="35.8675" y2="8.0092" gradientUnits="userSpaceOnUse">
<stop stop-color="#0D51DA"/>
<stop offset="0.770833" stop-color="#0079FF"/>
</linearGradient>
<linearGradient id="paint6_linear_1677_887" x1="32.4189" y1="14.0204" x2="35.9052" y2="14.0204" gradientUnits="userSpaceOnUse">
<stop stop-color="#0D51DA"/>
<stop offset="0.770833" stop-color="#0079FF"/>
</linearGradient>
<linearGradient id="paint7_linear_1677_887" x1="32.4229" y1="16.9859" x2="35.9135" y2="16.9859" gradientUnits="userSpaceOnUse">
<stop stop-color="#0D51DA"/>
<stop offset="0.770833" stop-color="#0079FF"/>
</linearGradient>
<clipPath id="clip0_1677_887">
<rect width="56" height="55.7692" fill="white" transform="translate(0.5 0.115356)"/>
</clipPath>
</defs>
</svg>
