
<svg width="57" height="48" viewBox="0 0 57 48" fill="none" xmlns="http://www.w3.org/2000/svg">
<g clip-path="url(#clip0_1677_900)">
<path d="M39.0861 0.825186C39.7421 0.825186 40.4266 0.820812 41.1133 0.825186C44.0043 0.842681 45.6466 2.46749 45.6728 5.37376C45.6947 7.63275 45.6772 9.89392 45.6772 12.1551C45.6772 12.5465 45.6772 12.9358 45.6772 13.4541C47.0374 13.4541 48.2664 13.4475 49.4953 13.4541C50.9693 13.465 51.5531 14.0314 51.5685 15.4965C51.5816 16.6621 51.575 17.8299 51.5378 18.9954C51.4963 20.2463 50.8818 20.8542 49.62 20.8805C48.3538 20.9089 47.0855 20.887 45.7471 20.887V24.1651C46.9958 24.1651 48.2204 24.1585 49.4451 24.1651C50.9846 24.1738 51.5575 24.7358 51.5663 26.2688C51.5728 27.3994 51.5706 28.53 51.5357 29.6584C51.4963 30.9705 50.884 31.5675 49.5522 31.5937C48.3188 31.6178 47.0855 31.5981 45.7625 31.5981V34.8127C46.9805 34.8127 48.1723 34.8039 49.3641 34.8149C51.0283 34.8302 51.5663 35.3856 51.5663 37.0739C51.5663 38.1673 51.5706 39.2629 51.5357 40.3541C51.4941 41.6224 50.9124 42.2041 49.6266 42.2369C48.3604 42.2697 47.0942 42.2435 45.7515 42.2435V45.4384H54.7896C54.8093 45.0142 54.8443 44.6249 54.8443 44.2379C54.8465 33.9576 54.8487 23.6774 54.8443 13.3972C54.8443 10.9589 54.0636 10.1738 51.6625 10.1716C50.7878 10.1716 49.913 10.1716 49.0383 10.1716C48.4369 10.1716 47.8224 10.0229 47.9449 9.31878C48.0018 8.99513 48.5988 8.56652 48.9814 8.53371C50.1383 8.43093 51.3126 8.44843 52.476 8.51185C54.8837 8.64306 56.4844 10.3641 56.4866 12.8221C56.4975 23.5768 56.4932 34.3294 56.4866 45.0842C56.4866 46.6106 55.8699 47.1682 54.2254 47.1682C42.3816 47.1682 30.5357 47.1682 18.6919 47.1682C13.3713 47.1682 8.0508 47.1682 2.72809 47.1682C1.05955 47.1682 0.493164 46.6062 0.493164 44.9464C0.499725 34.3075 0.499725 23.6621 0.504098 13.0167C0.504098 10.2066 2.17483 8.52497 4.9827 8.50091C7.01863 8.4856 9.05674 8.49873 11.2567 8.49873C11.2567 7.40532 11.2545 6.4628 11.2567 5.52247C11.2654 2.4981 12.9077 0.838307 15.9015 0.825186C16.5553 0.822999 17.207 0.825186 17.9724 0.825186H39.0861ZM17.8959 2.50903C17.3098 2.50903 16.6953 2.50903 16.0808 2.50903C13.7015 2.51341 12.9383 3.27005 12.9383 5.64274C12.9383 18.5122 12.9383 31.3816 12.9383 44.251V45.4406H19.5338C19.5338 43.8683 19.4857 42.3747 19.571 40.892C19.5906 40.5596 20.0783 40.2535 20.3516 39.9342C20.6228 40.2163 20.9727 40.4591 21.1367 40.7936C21.2679 41.0604 21.1739 41.4366 21.1739 41.7646C21.1739 42.987 21.1739 44.2116 21.1739 45.4603H27.5988V31.1607H21.1717C21.1717 32.9801 21.1717 34.7208 21.1717 36.4637C21.1717 37.0454 21.1083 37.6577 20.391 37.6818C19.6038 37.708 19.5207 37.0914 19.525 36.4528C19.5382 34.7099 19.5294 32.9648 19.5294 31.1541C18.1167 30.9726 17.7953 30.0564 17.8784 28.8624C17.9046 28.4994 17.8674 28.132 17.8915 27.769C17.968 26.6843 18.4644 26.1726 19.5556 26.1682C25.5322 26.1551 31.511 26.1441 37.4875 26.1966C37.9708 26.201 38.6531 26.5771 38.8959 26.9861C39.7421 28.4075 38.9855 30.5571 37.5028 31.2547V45.4712H44.0239V44.2466C44.0239 31.3772 44.0239 18.5078 44.0239 5.63837C44.0239 5.31035 44.0414 4.97795 44.0021 4.6543C43.8665 3.55433 43.0224 2.63368 41.9552 2.5484C40.9865 2.47186 40.0068 2.53309 39.0577 2.53309L17.8937 2.50685L17.8959 2.50903ZM11.2217 20.8914C9.87898 20.8914 8.6478 20.9111 7.41663 20.887C6.10454 20.8608 5.49441 20.2485 5.45942 18.9277C5.42662 17.7621 5.41569 16.5943 5.43318 15.4287C5.45505 14.0423 6.05643 13.4694 7.46692 13.4562C8.69373 13.4453 9.92272 13.4541 11.1714 13.4541V10.176C9.15733 10.176 7.23075 10.176 5.30416 10.176C2.96208 10.176 2.15514 10.9764 2.15296 13.3207C2.14858 23.6359 2.15296 33.9489 2.15296 44.2641C2.15296 44.6512 2.19013 45.0361 2.21638 45.5237C4.94115 45.5237 7.55658 45.5237 10.172 45.5215C10.4913 45.5215 10.8106 45.4844 11.1648 45.4603V42.2501C9.83743 42.2501 8.59969 42.2763 7.36414 42.2435C6.08048 42.2107 5.50097 41.6268 5.45942 40.3585C5.42444 39.265 5.42881 38.1716 5.42881 37.0782C5.42881 35.3922 5.96895 34.8389 7.63093 34.8214C8.81619 34.8105 10.0014 34.8193 11.1583 34.8193V31.668C10.9899 31.6396 10.9199 31.6178 10.8477 31.6178C9.79151 31.6134 8.73528 31.6178 7.67686 31.6068C6.028 31.5915 5.47473 31.0339 5.45068 29.3566C5.43537 28.3353 5.42225 27.3163 5.42881 26.295C5.43974 24.7533 6.00613 24.1826 7.53034 24.1716C8.75277 24.1629 9.97301 24.1716 11.2217 24.1716V20.8936V20.8914ZM35.7425 45.4669V31.1782H29.4138V45.4669H35.7425ZM19.5797 29.3741H37.4154V27.8586H19.5819V29.3741H19.5797ZM7.1389 15.1226V19.1288H11.1823V15.1226H7.1389ZM49.8431 19.1485V15.0701C48.6316 15.0701 47.5075 15.0351 46.3879 15.0964C46.143 15.1095 45.7275 15.4528 45.7165 15.6627C45.6509 16.8086 45.6859 17.9589 45.6859 19.1463H49.8431V19.1485ZM7.10391 29.8442H11.1823V25.8599H7.10391V29.8442ZM49.8409 29.8749V25.7811C48.625 25.7811 47.4988 25.7527 46.3769 25.803C46.143 25.8139 45.7318 26.1004 45.7231 26.2754C45.664 27.4562 45.6925 28.6437 45.6925 29.8727H49.8409V29.8749ZM7.16077 36.5162V40.5312H11.1976V36.5162H7.16077ZM49.8977 36.5381H45.7428V40.5225H49.8977V36.5381Z" fill="url(#paint0_linear_1677_900)"/>
<path d="M21.5018 22.8836C20.3734 22.8836 19.245 22.9011 18.1188 22.8792C16.8679 22.8552 16.2425 22.2341 16.225 20.9942C16.2075 19.7564 16.2097 18.5187 16.2381 17.281C16.2644 16.0979 16.8876 15.4637 18.0751 15.4528C20.3668 15.4287 22.6608 15.4309 24.9526 15.4528C26.1925 15.4637 26.8201 16.0848 26.8551 17.34C26.8901 18.5756 26.8923 19.8155 26.8529 21.051C26.8136 22.2407 26.1794 22.8508 24.9985 22.8792C23.8351 22.9054 22.6696 22.8858 21.5062 22.8858L21.5018 22.8836ZM17.9067 17.1585V21.1582H25.1297V17.1585H17.9067Z" fill="url(#paint1_linear_1677_900)"/>
<path d="M35.3844 22.8836C34.2581 22.8836 33.1319 22.9033 32.0057 22.8771C30.8248 22.8508 30.1885 22.2385 30.1513 21.0555C30.1119 19.7849 30.1076 18.51 30.1513 17.2395C30.1929 16.0673 30.8423 15.4616 32.0342 15.4507C34.3237 15.431 36.6133 15.4288 38.9008 15.4507C40.1276 15.4638 40.7399 16.1133 40.7574 17.3685C40.7727 18.5319 40.7661 19.6953 40.7508 20.8565C40.7311 22.2363 40.1232 22.8574 38.763 22.8771C37.6368 22.8924 36.5106 22.8815 35.3844 22.8793V22.8836ZM31.8395 17.1586V21.1342H39.0407V17.1586H31.8395Z" fill="url(#paint2_linear_1677_900)"/>
<path d="M21.5018 13.3272C20.3734 13.3272 19.245 13.3447 18.1188 13.3228C16.8679 13.2988 16.2425 12.6777 16.225 11.4378C16.2075 10.2 16.2097 8.9623 16.2381 7.72456C16.2644 6.54149 16.8876 5.90732 18.0751 5.89638C20.3668 5.87233 22.6608 5.87451 24.9526 5.89638C26.1925 5.90732 26.8201 6.52837 26.8551 7.7836C26.8901 9.01916 26.8923 10.2591 26.8529 11.4946C26.8136 12.6843 26.1794 13.2944 24.9985 13.3228C23.8351 13.3491 22.6696 13.3294 21.5062 13.3294L21.5018 13.3272ZM17.9067 7.6021V11.6018H25.1297V7.6021H17.9067Z" fill="url(#paint3_linear_1677_900)"/>
<path d="M35.3844 13.3272C34.2581 13.3272 33.1319 13.3469 32.0057 13.3207C30.8248 13.2944 30.1885 12.6821 30.1513 11.4991C30.1119 10.2285 30.1076 8.95361 30.1513 7.68307C30.1929 6.51094 30.8423 5.90519 32.0342 5.89425C34.3237 5.87457 36.6133 5.87239 38.9008 5.89425C40.1276 5.90737 40.7399 6.55686 40.7574 7.81209C40.7727 8.97548 40.7661 10.1389 40.7508 11.3001C40.7311 12.6799 40.1232 13.301 38.763 13.3207C37.6368 13.336 36.5106 13.3251 35.3844 13.3229V13.3272ZM31.8395 7.60216V11.5778H39.0407V7.60216H31.8395Z" fill="url(#paint4_linear_1677_900)"/>
<path d="M26.049 38.3422C26.049 38.5959 26.143 38.9108 26.0293 39.0945C25.8238 39.4203 25.4936 39.6696 25.2158 39.9495C24.9403 39.6653 24.5357 39.4225 24.4264 39.0836C24.2864 38.655 24.2864 38.117 24.4177 37.684C24.5336 37.3057 24.9119 37.0061 25.1765 36.6715C25.4717 37.0105 25.8019 37.3254 26.0468 37.6971C26.1474 37.8502 26.0643 38.1236 26.0643 38.3422C26.0621 38.3422 26.0578 38.3422 26.0556 38.3422H26.049Z" fill="url(#paint5_linear_1677_900)"/>
<path d="M32.6439 38.4034C32.6133 38.7162 32.6789 39.0967 32.5259 39.3481C32.3662 39.6128 32.0098 39.8839 31.7211 39.9058C31.4981 39.9233 31.0694 39.5843 31.0388 39.3613C30.9426 38.6855 30.9251 37.9792 31.0257 37.3078C31.0629 37.0629 31.5155 36.7174 31.778 36.7174C32.0404 36.7174 32.4078 37.0411 32.5412 37.3144C32.6877 37.6184 32.6177 38.0251 32.6439 38.4034Z" fill="url(#paint6_linear_1677_900)"/>
</g>
<defs>
<linearGradient id="paint0_linear_1677_900" x1="0.493164" y1="23.7364" x2="56.4933" y2="23.7364" gradientUnits="userSpaceOnUse">
<stop stop-color="#0D51DA"/>
<stop offset="0.770833" stop-color="#0079FF"/>
</linearGradient>
<linearGradient id="paint1_linear_1677_900" x1="16.2139" y1="19.1225" x2="26.8819" y2="19.1225" gradientUnits="userSpaceOnUse">
<stop stop-color="#0D51DA"/>
<stop offset="0.770833" stop-color="#0079FF"/>
</linearGradient>
<linearGradient id="paint2_linear_1677_900" x1="30.1201" y1="19.1212" x2="40.7661" y2="19.1212" gradientUnits="userSpaceOnUse">
<stop stop-color="#0D51DA"/>
<stop offset="0.770833" stop-color="#0079FF"/>
</linearGradient>
<linearGradient id="paint3_linear_1677_900" x1="16.2139" y1="9.56608" x2="26.8819" y2="9.56608" gradientUnits="userSpaceOnUse">
<stop stop-color="#0D51DA"/>
<stop offset="0.770833" stop-color="#0079FF"/>
</linearGradient>
<linearGradient id="paint4_linear_1677_900" x1="30.1201" y1="9.56478" x2="40.7661" y2="9.56478" gradientUnits="userSpaceOnUse">
<stop stop-color="#0D51DA"/>
<stop offset="0.770833" stop-color="#0079FF"/>
</linearGradient>
<linearGradient id="paint5_linear_1677_900" x1="24.3203" y1="38.2922" x2="26.0966" y2="38.2922" gradientUnits="userSpaceOnUse">
<stop stop-color="#0D51DA"/>
<stop offset="0.770833" stop-color="#0079FF"/>
</linearGradient>
<linearGradient id="paint6_linear_1677_900" x1="30.958" y1="38.2941" x2="32.6439" y2="38.2941" gradientUnits="userSpaceOnUse">
<stop stop-color="#0D51DA"/>
<stop offset="0.770833" stop-color="#0079FF"/>
</linearGradient>
<clipPath id="clip0_1677_900">
<rect width="56" height="46.3496" fill="white" transform="translate(0.5 0.825195)"/>
</clipPath>
</defs>
</svg>
