
<svg width="41" height="56" viewBox="0 0 41 56" fill="none" xmlns="http://www.w3.org/2000/svg">
<g clip-path="url(#clip0_1677_1429)">
<path d="M38.6667 7.92H29.0567V7.68C29.0567 7.02 28.5167 6.48 27.8567 6.48H25.6267V4.86C25.6267 2.18 23.4467 0 20.7667 0C18.0867 0 15.9067 2.18 15.9067 4.86V6.48H13.4767C12.8167 6.48 12.2767 7.02 12.2767 7.68V7.92H2.66675C1.56675 7.92 0.666748 8.82 0.666748 9.92V54C0.666748 55.1 1.56675 56 2.66675 56H38.6667C39.7667 56 40.6667 55.1 40.6667 54V9.92C40.6667 8.82 39.7667 7.92 38.6667 7.92ZM17.9067 4.86C17.9067 3.28 19.1867 2 20.7667 2C22.3467 2 23.6267 3.28 23.6267 4.86V6.48H17.9067V4.86ZM14.2767 8.48H27.0567V12.76H14.2867V8.48H14.2767ZM27.8567 14.76C28.5067 14.76 29.0367 14.23 29.0567 13.58H34.9767V50.33H6.36675V13.58H12.2867C12.2967 14.23 12.8267 14.76 13.4867 14.76H27.8667H27.8567ZM38.6667 54H2.66675V9.92H12.2867V11.58H5.56675C4.90675 11.58 4.36675 12.12 4.36675 12.78V51.13C4.36675 51.79 4.90675 52.33 5.56675 52.33H35.7767C36.4367 52.33 36.9767 51.79 36.9767 51.13V12.78C36.9767 12.12 36.4367 11.58 35.7767 11.58H29.0567V9.92H38.6667V54Z" fill="url(#paint0_linear_1677_1429)"/>
<path d="M15.5767 26.7702H17.6167V28.7802C17.6167 29.4602 18.1667 30.0102 18.8567 30.0102H22.5067C23.1867 30.0102 23.7467 29.4602 23.7467 28.7802V26.7702H25.7867C26.4667 26.7702 27.0267 26.2202 27.0267 25.5402V21.9202C27.0267 21.2402 26.4767 20.6902 25.7867 20.6902H23.7467V18.6802C23.7467 18.0002 23.1967 17.4502 22.5067 17.4502H18.8567C18.1767 17.4502 17.6167 18.0002 17.6167 18.6802V20.6902H15.5767C14.8967 20.6902 14.3367 21.2402 14.3367 21.9202V25.5402C14.3367 26.2202 14.8867 26.7702 15.5767 26.7702ZM16.3367 22.6802H18.3767C19.0567 22.6802 19.6167 22.1302 19.6167 21.4502V19.4402H21.7367V21.4502C21.7367 22.1302 22.2867 22.6802 22.9767 22.6802H25.0167V24.7702H22.9767C22.2967 24.7702 21.7367 25.3202 21.7367 26.0002V28.0102H19.6167V26.0002C19.6167 25.3202 19.0667 24.7702 18.3767 24.7702H16.3367V22.6802Z" fill="url(#paint1_linear_1677_1429)"/>
<path d="M9.38672 34.6602C9.38672 35.2102 9.83672 35.6602 10.3867 35.6602H31.1467C31.6967 35.6602 32.1467 35.2102 32.1467 34.6602C32.1467 34.1102 31.6967 33.6602 31.1467 33.6602H10.3867C9.83672 33.6602 9.38672 34.1102 9.38672 34.6602Z" fill="url(#paint2_linear_1677_1429)"/>
<path d="M31.1467 39.0703H10.3867C9.83672 39.0703 9.38672 39.5203 9.38672 40.0703C9.38672 40.6203 9.83672 41.0703 10.3867 41.0703H31.1467C31.6967 41.0703 32.1467 40.6203 32.1467 40.0703C32.1467 39.5203 31.6967 39.0703 31.1467 39.0703Z" fill="url(#paint3_linear_1677_1429)"/>
<path d="M31.1467 44.4805H10.3867C9.83672 44.4805 9.38672 44.9305 9.38672 45.4805C9.38672 46.0305 9.83672 46.4805 10.3867 46.4805H31.1467C31.6967 46.4805 32.1467 46.0305 32.1467 45.4805C32.1467 44.9305 31.6967 44.4805 31.1467 44.4805Z" fill="url(#paint4_linear_1677_1429)"/>
</g>
<defs>
<linearGradient id="paint0_linear_1677_1429" x1="0.666748" y1="27.6867" x2="40.6667" y2="27.6867" gradientUnits="userSpaceOnUse">
<stop stop-color="#0D51DA"/>
<stop offset="0.770833" stop-color="#0079FF"/>
</linearGradient>
<linearGradient id="paint1_linear_1677_1429" x1="14.3367" y1="23.6599" x2="27.0267" y2="23.6599" gradientUnits="userSpaceOnUse">
<stop stop-color="#0D51DA"/>
<stop offset="0.770833" stop-color="#0079FF"/>
</linearGradient>
<linearGradient id="paint2_linear_1677_1429" x1="9.38672" y1="34.649" x2="32.1467" y2="34.649" gradientUnits="userSpaceOnUse">
<stop stop-color="#0D51DA"/>
<stop offset="0.770833" stop-color="#0079FF"/>
</linearGradient>
<linearGradient id="paint3_linear_1677_1429" x1="9.38672" y1="40.0591" x2="32.1467" y2="40.0591" gradientUnits="userSpaceOnUse">
<stop stop-color="#0D51DA"/>
<stop offset="0.770833" stop-color="#0079FF"/>
</linearGradient>
<linearGradient id="paint4_linear_1677_1429" x1="9.38672" y1="45.4693" x2="32.1467" y2="45.4693" gradientUnits="userSpaceOnUse">
<stop stop-color="#0D51DA"/>
<stop offset="0.770833" stop-color="#0079FF"/>
</linearGradient>
<clipPath id="clip0_1677_1429">
<rect width="40" height="56" fill="white" transform="translate(0.666748)"/>
</clipPath>
</defs>
</svg>
