
<svg width="46" height="56" viewBox="0 0 46 56" fill="none" xmlns="http://www.w3.org/2000/svg">
<g clip-path="url(#clip0_1677_1412)">
<path d="M46 16.88C46 13.3 43.08 10.38 39.49 10.38C35.9 10.38 32.98 13.29 32.98 16.88C32.98 20.12 35.38 22.81 38.49 23.29V45.38C38.49 50.13 34.71 54 30.08 54L23.95 53.97C19.56 53.97 15.95 50.51 15.57 46.11C16.46 45.71 17.08 44.8 17.08 43.75V37.47C24.02 36.21 29.05 30.09 29.05 22.89V21.02C29.05 19.94 28.39 19.01 27.46 18.63V4.23C27.46 3.18 26.61 2.32 25.57 2.32H24.73V1.99C24.73 0.89 23.84 0 22.74 0H22.5C20.68 0 19.19 1.48 19.19 3.33C19.19 5.18 20.67 6.64 22.5 6.64H22.74C23.84 6.64 24.73 5.75 24.73 4.65V4.32H25.46V18.67C24.57 19.07 23.95 19.98 23.95 21.03V22.59C23.95 27.69 20.21 32.05 15.44 32.5C12.8 32.76 10.26 31.91 8.28999 30.11C6.26999 28.28 5.10999 25.65 5.10999 22.89V21.02C5.10999 19.97 4.48999 19.07 3.59999 18.66V4.32H4.32999V4.65C4.32999 5.75 5.21999 6.64 6.31999 6.64H6.55999C8.37999 6.64 9.86999 5.16 9.86999 3.31C9.86999 1.46 8.36999 0 6.53999 0H6.29999C5.19999 0 4.30999 0.89 4.30999 1.99V2.32H3.46999C2.42999 2.32 1.57999 3.17 1.57999 4.23V18.64C0.64999 19.03 -0.0100098 19.95 -0.0100098 21.03V22.9C-0.0100098 30.1 5.01999 36.22 11.96 37.48V43.76C11.96 44.84 12.62 45.77 13.55 46.15C13.95 51.63 18.45 55.97 23.92 55.97L30.05 56C35.79 56 40.47 51.23 40.47 45.38V23.29C43.59 22.81 45.98 20.12 45.98 16.88H46ZM22.5 4.64C21.78 4.64 21.19 4.05 21.19 3.31C21.19 2.57 21.78 2 22.5 2H22.73L22.74 4.64H22.5V4.64ZM6.53999 2C7.25999 2 7.84999 2.59 7.84999 3.33C7.84999 4.07 7.25999 4.64 6.53999 4.64H6.30999L6.29999 2H6.53999V2ZM12.38 35.52C6.35999 34.46 1.99999 29.15 1.99999 22.9V21.03C1.99999 20.71 2.24999 20.44 2.54999 20.44C2.84999 20.44 3.09999 20.7 3.09999 21.03V22.9C3.09999 26.21 4.49999 29.38 6.92999 31.6C9.32999 33.78 12.41 34.8 15.62 34.5C21.41 33.94 25.94 28.71 25.94 22.6V21.04C25.94 20.72 26.19 20.45 26.49 20.45C26.79 20.45 27.04 20.71 27.04 21.04V22.91C27.04 29.16 22.67 34.47 16.65 35.53C15.73 35.69 15.07 36.48 15.07 37.41V43.77C15.07 44.09 14.82 44.36 14.52 44.36C14.22 44.36 13.97 44.1 13.97 43.77V37.41C13.97 36.48 13.3 35.69 12.39 35.53L12.38 35.52ZM39.48 21.38C36.99 21.38 34.97 19.36 34.97 16.88C34.97 14.4 36.99 12.38 39.48 12.38C41.97 12.38 43.99 14.4 43.99 16.88C43.99 19.36 41.97 21.38 39.48 21.38Z" fill="url(#paint0_linear_1677_1412)"/>
<path d="M39.49 13.3896C37.56 13.3896 35.98 14.9496 35.98 16.8796C35.98 18.8096 37.55 20.3696 39.49 20.3696C41.43 20.3696 43 18.8096 43 16.8796C43 14.9496 41.43 13.3896 39.49 13.3896V13.3896ZM39.49 18.3596C38.66 18.3596 37.98 17.6896 37.98 16.8696C37.98 16.0496 38.66 15.3796 39.49 15.3796C40.32 15.3796 41 16.0496 41 16.8696C41 17.6896 40.32 18.3596 39.49 18.3596Z" fill="url(#paint1_linear_1677_1412)"/>
</g>
<defs>
<linearGradient id="paint0_linear_1677_1412" x1="-0.0100096" y1="27.6867" x2="46" y2="27.6867" gradientUnits="userSpaceOnUse">
<stop stop-color="#0D51DA"/>
<stop offset="0.770833" stop-color="#0079FF"/>
</linearGradient>
<linearGradient id="paint1_linear_1677_1412" x1="35.98" y1="16.8406" x2="43" y2="16.8406" gradientUnits="userSpaceOnUse">
<stop stop-color="#0D51DA"/>
<stop offset="0.770833" stop-color="#0079FF"/>
</linearGradient>
<clipPath id="clip0_1677_1412">
<rect width="46" height="56" fill="white"/>
</clipPath>
</defs>
</svg>
