
<svg width="57" height="36" viewBox="0 0 57 36" fill="none" xmlns="http://www.w3.org/2000/svg">
<g clip-path="url(#clip0_1677_1420)">
<path d="M56.0636 17.25C54.6136 15.48 41.5436 0 29.4336 0C17.3236 0 3.27359 16.66 2.67359 17.41L0.953594 19.78C0.00359356 21.09 0.173594 22.91 1.35359 24.01C1.97359 24.6 2.79359 24.9 3.64359 24.85C4.49359 24.81 5.27359 24.43 5.84359 23.78L6.59359 22.91C11.4036 27.83 20.6936 35.99 29.4436 35.99C38.1936 35.99 47.9536 27.45 52.8236 22.36C54.5836 20.53 55.7536 19.12 56.0736 18.74C56.4336 18.3 56.4336 17.68 56.0736 17.24L56.0636 17.25ZM51.3736 20.99C46.7136 25.85 37.6736 34 29.4336 34C21.1936 34 12.5136 26.14 7.94359 21.45C7.58359 21.08 7.09359 20.87 6.58359 20.87H6.53359C6.00359 20.88 5.49359 21.12 5.14359 21.53L4.32359 22.47C4.11359 22.71 3.83359 22.84 3.53359 22.86C3.24359 22.88 2.94359 22.77 2.71359 22.56C2.27359 22.14 2.20359 21.46 2.56359 20.96L4.26359 18.62C4.39359 18.45 17.7536 1.99 29.4336 1.99C39.8036 1.99 51.6436 15.15 54.0836 17.99C53.5436 18.62 52.6136 19.69 51.3736 20.98V20.99Z" fill="url(#paint0_linear_1677_1420)"/>
<path d="M35.8335 5.75984C34.0435 4.85984 32.0335 4.33984 29.9035 4.33984C29.8735 4.33984 29.8335 4.33984 29.8035 4.33984C29.7735 4.33984 29.7435 4.33984 29.7135 4.33984C22.7935 4.33984 15.6435 10.0998 9.56353 15.7298C9.15353 16.1098 9.13353 16.7398 9.51353 17.1398C9.71353 17.3498 9.98353 17.4598 10.2435 17.4598C10.4835 17.4598 10.7335 17.3698 10.9235 17.1898C13.3335 14.9598 15.9035 12.7198 18.5435 10.8498C17.3735 12.8198 16.6935 15.1098 16.6935 17.5598C16.6935 24.8498 22.6235 30.7798 29.9135 30.7798C37.2035 30.7798 43.1335 24.8498 43.1335 17.5598C43.1335 15.4898 42.6435 13.5298 41.7835 11.7898C44.0335 13.5498 46.1535 15.4798 48.0035 17.1798C48.4135 17.5498 49.0435 17.5298 49.4135 17.1198C49.7835 16.7098 49.7535 16.0798 49.3535 15.7098C45.6035 12.2798 40.8735 7.95984 35.8335 5.76984V5.75984ZM29.9035 28.7798C23.7135 28.7798 18.6835 23.7498 18.6835 17.5598C18.6835 11.3698 23.6635 6.39984 29.8035 6.33984C31.5135 6.35984 33.2435 6.80984 34.9635 7.54984C38.6135 9.39984 41.1235 13.1898 41.1235 17.5498C41.1235 23.7398 36.0935 28.7698 29.9035 28.7698V28.7798Z" fill="url(#paint1_linear_1677_1420)"/>
<path d="M29.8936 9.97969C29.3536 9.97969 28.8436 10.0597 28.3336 10.1597C27.6536 9.40969 26.6836 8.92969 25.5936 8.92969C23.5536 8.92969 21.8936 10.5897 21.8936 12.6297C21.8936 13.5297 22.2336 14.3497 22.7636 14.9897C22.4736 15.7997 22.3136 16.6697 22.3136 17.5497C22.3136 21.7297 25.7136 25.1297 29.8936 25.1297C34.0736 25.1297 37.4736 21.7297 37.4736 17.5497C37.4736 13.3697 34.0736 9.96969 29.8936 9.96969V9.97969ZM25.5936 10.9297C26.5336 10.9297 27.2936 11.6897 27.2936 12.6297C27.2936 13.5697 26.5336 14.3297 25.5936 14.3297C24.6536 14.3297 23.8936 13.5697 23.8936 12.6297C23.8936 11.6897 24.6536 10.9297 25.5936 10.9297ZM29.8936 23.1397C26.8136 23.1397 24.3136 20.6397 24.3136 17.5597C24.3136 17.0697 24.3836 16.5997 24.5036 16.1597C24.8536 16.2697 25.2136 16.3397 25.6036 16.3397C27.6436 16.3397 29.3036 14.6797 29.3036 12.6397C29.3036 12.4297 29.2736 12.2297 29.2436 12.0297C29.4636 11.9997 29.6736 11.9797 29.9036 11.9797C32.9836 11.9797 35.4836 14.4797 35.4836 17.5597C35.4836 20.6397 32.9836 23.1397 29.9036 23.1397H29.8936Z" fill="url(#paint2_linear_1677_1420)"/>
</g>
<defs>
<linearGradient id="paint0_linear_1677_1420" x1="0.340576" y1="17.7936" x2="56.3436" y2="17.7936" gradientUnits="userSpaceOnUse">
<stop stop-color="#0D51DA"/>
<stop offset="0.770833" stop-color="#0079FF"/>
</linearGradient>
<linearGradient id="paint1_linear_1677_1420" x1="9.2417" y1="17.4119" x2="49.6733" y2="17.4119" gradientUnits="userSpaceOnUse">
<stop stop-color="#0D51DA"/>
<stop offset="0.770833" stop-color="#0079FF"/>
</linearGradient>
<linearGradient id="paint2_linear_1677_1420" x1="21.8936" y1="16.939" x2="37.4736" y2="16.939" gradientUnits="userSpaceOnUse">
<stop stop-color="#0D51DA"/>
<stop offset="0.770833" stop-color="#0079FF"/>
</linearGradient>
<clipPath id="clip0_1677_1420">
<rect width="56" height="36" fill="white" transform="translate(0.333496)"/>
</clipPath>
</defs>
</svg>
