
<svg width="27" height="37" viewBox="0 0 27 37" fill="none" xmlns="http://www.w3.org/2000/svg">
<g clip-path="url(#clip0_1_1440)">
<path d="M25.2381 5.59192H19.0603V5.43763C19.0603 5.01335 18.7131 4.6662 18.2889 4.6662H16.8553V3.62477C16.8553 1.90192 15.4539 0.500488 13.731 0.500488C12.0081 0.500488 10.6067 1.90192 10.6067 3.62477V4.6662H9.04457C8.62028 4.6662 8.27314 5.01335 8.27314 5.43763V5.59192H2.09528C1.38814 5.59192 0.80957 6.17049 0.80957 6.87763V35.2148C0.80957 35.9219 1.38814 36.5005 2.09528 36.5005H25.2381C25.9453 36.5005 26.5239 35.9219 26.5239 35.2148V6.87763C26.5239 6.17049 25.9453 5.59192 25.2381 5.59192ZM11.8924 3.62477C11.8924 2.60906 12.7153 1.7862 13.731 1.7862C14.7467 1.7862 15.5696 2.60906 15.5696 3.62477V4.6662H11.8924V3.62477ZM9.55886 5.95192H17.7746V8.70335H9.56528V5.95192H9.55886ZM18.2889 9.98906C18.7067 9.98906 19.0474 9.64834 19.0603 9.23049H22.866V32.8555H4.47386V9.23049H8.27957C8.286 9.64834 8.62671 9.98906 9.051 9.98906H18.2953H18.2889ZM25.2381 35.2148H2.09528V6.87763H8.27957V7.94477H3.95957C3.53528 7.94477 3.18814 8.29192 3.18814 8.7162V33.3698C3.18814 33.7941 3.53528 34.1412 3.95957 34.1412H23.3803C23.8046 34.1412 24.1517 33.7941 24.1517 33.3698V8.7162C24.1517 8.29192 23.8046 7.94477 23.3803 7.94477H19.0603V6.87763H25.2381V35.2148Z" fill="#00D9A6"/>
<path d="M10.3946 17.7097H11.706V19.0018C11.706 19.439 12.0596 19.7925 12.5031 19.7925H14.8496C15.2867 19.7925 15.6467 19.439 15.6467 19.0018V17.7097H16.9581C17.3953 17.7097 17.7553 17.3561 17.7553 16.919V14.5918C17.7553 14.1547 17.4017 13.8011 16.9581 13.8011H15.6467V12.509C15.6467 12.0718 15.2931 11.7183 14.8496 11.7183H12.5031C12.066 11.7183 11.706 12.0718 11.706 12.509V13.8011H10.3946C9.95741 13.8011 9.59741 14.1547 9.59741 14.5918V16.919C9.59741 17.3561 9.95098 17.7097 10.3946 17.7097ZM10.8831 15.0804H12.1946C12.6317 15.0804 12.9917 14.7268 12.9917 14.2897V12.9975H14.3546V14.2897C14.3546 14.7268 14.7081 15.0804 15.1517 15.0804H16.4631V16.424H15.1517C14.7146 16.424 14.3546 16.7775 14.3546 17.2147V18.5068H12.9917V17.2147C12.9917 16.7775 12.6381 16.424 12.1946 16.424H10.8831V15.0804Z" fill="#00D9A6"/>
<path d="M6.41528 22.782C6.41528 23.1356 6.70457 23.4249 7.05814 23.4249H20.4039C20.7574 23.4249 21.0467 23.1356 21.0467 22.782C21.0467 22.4284 20.7574 22.1392 20.4039 22.1392H7.05814C6.70457 22.1392 6.41528 22.4284 6.41528 22.782Z" fill="#00D9A6"/>
<path d="M20.4039 25.6167H7.05814C6.70457 25.6167 6.41528 25.906 6.41528 26.2596C6.41528 26.6131 6.70457 26.9024 7.05814 26.9024H20.4039C20.7574 26.9024 21.0467 26.6131 21.0467 26.2596C21.0467 25.906 20.7574 25.6167 20.4039 25.6167Z" fill="#00D9A6"/>
<path d="M20.4039 29.0947H7.05814C6.70457 29.0947 6.41528 29.384 6.41528 29.7376C6.41528 30.0912 6.70457 30.3804 7.05814 30.3804H20.4039C20.7574 30.3804 21.0467 30.0912 21.0467 29.7376C21.0467 29.384 20.7574 29.0947 20.4039 29.0947Z" fill="#00D9A6"/>
</g>
<defs>
<clipPath id="clip0_1_1440">
<rect width="25.7143" height="36" fill="white" transform="translate(0.80957 0.500488)"/>
</clipPath>
</defs>
</svg>
