
<svg width="20" height="20" viewBox="0 0 20 20" fill="none" xmlns="http://www.w3.org/2000/svg">
<path fill-rule="evenodd" clip-rule="evenodd" d="M5.60045 0.181641H14.399C17.3871 0.181641 19.8181 2.61264 19.818 5.60057V14.3991C19.818 17.387 17.3871 19.818 14.399 19.818H5.60045C2.61252 19.818 0.181641 17.3871 0.181641 14.3991V5.60057C0.181641 2.61264 2.61252 0.181641 5.60045 0.181641ZM14.3991 18.0758C16.4265 18.0758 18.0759 16.4265 18.0759 14.3991H18.0758V5.60057C18.0758 3.5733 16.4263 1.92387 14.399 1.92387H5.60045C3.57319 1.92387 1.92387 3.5733 1.92387 5.60057V14.3991C1.92387 16.4265 3.57319 18.0759 5.60045 18.0758H14.3991ZM4.85696 9.99994C4.85696 7.16406 7.16401 4.85697 9.99982 4.85697C12.8356 4.85697 15.1427 7.16406 15.1427 9.99994C15.1427 12.8357 12.8356 15.1427 9.99982 15.1427C7.16401 15.1427 4.85696 12.8357 4.85696 9.99994ZM6.6278 9.99982C6.6278 11.8591 8.14057 13.3717 9.99982 13.3717C11.8591 13.3717 13.3718 11.8591 13.3718 9.99982C13.3718 8.1404 11.8592 6.62772 9.99982 6.62772C8.14045 6.62772 6.6278 8.1404 6.6278 9.99982Z" fill="url(#paint0_linear_1771_246)"/>
<defs>
<linearGradient id="paint0_linear_1771_246" x1="0.181641" y1="9.88995" x2="19.818" y2="9.88995" gradientUnits="userSpaceOnUse">
<stop stop-color="#0D51DA"/>
<stop offset="0.770833" stop-color="#0079FF"/>
</linearGradient>
</defs>
</svg>
