
<svg width="17" height="21" viewBox="0 0 17 21" fill="none" xmlns="http://www.w3.org/2000/svg">
<path d="M8.5 10.5C9.05 10.5 9.521 10.304 9.913 9.912C10.3043 9.52067 10.5 9.05 10.5 8.5C10.5 7.95 10.3043 7.479 9.913 7.087C9.521 6.69567 9.05 6.5 8.5 6.5C7.95 6.5 7.47933 6.69567 7.088 7.087C6.696 7.479 6.5 7.95 6.5 8.5C6.5 9.05 6.696 9.52067 7.088 9.912C7.47933 10.304 7.95 10.5 8.5 10.5ZM8.5 17.85C10.5333 15.9833 12.0417 14.2873 13.025 12.762C14.0083 11.2373 14.5 9.88333 14.5 8.7C14.5 6.88333 13.9207 5.39567 12.762 4.237C11.604 3.079 10.1833 2.5 8.5 2.5C6.81667 2.5 5.39567 3.079 4.237 4.237C3.079 5.39567 2.5 6.88333 2.5 8.7C2.5 9.88333 2.99167 11.2373 3.975 12.762C4.95833 14.2873 6.46667 15.9833 8.5 17.85ZM8.5 20.5C5.81667 18.2167 3.81267 16.0957 2.488 14.137C1.16267 12.179 0.5 10.3667 0.5 8.7C0.5 6.2 1.30433 4.20833 2.913 2.725C4.521 1.24167 6.38333 0.5 8.5 0.5C10.6167 0.5 12.479 1.24167 14.087 2.725C15.6957 4.20833 16.5 6.2 16.5 8.7C16.5 10.3667 15.8377 12.179 14.513 14.137C13.1877 16.0957 11.1833 18.2167 8.5 20.5Z" fill="#0075FF"/>
</svg>
