
<svg width="25" height="24" viewBox="0 0 25 24" fill="none" xmlns="http://www.w3.org/2000/svg">
<mask id="mask0_1677_1256" style="mask-type:alpha" maskUnits="userSpaceOnUse" x="0" y="0" width="25" height="24">
<rect x="0.5" width="24" height="24" fill="#D9D9D9"/>
</mask>
<g mask="url(#mask0_1677_1256)">
<path d="M12.5 12C11.4 12 10.4583 11.6083 9.675 10.825C8.89167 10.0417 8.5 9.1 8.5 8C8.5 6.9 8.89167 5.95833 9.675 5.175C10.4583 4.39167 11.4 4 12.5 4C13.6 4 14.5417 4.39167 15.325 5.175C16.1083 5.95833 16.5 6.9 16.5 8C16.5 9.1 16.1083 10.0417 15.325 10.825C14.5417 11.6083 13.6 12 12.5 12ZM4.5 20V17.2C4.5 16.6333 4.646 16.1123 4.938 15.637C5.22933 15.1623 5.61667 14.8 6.1 14.55C7.13333 14.0333 8.18333 13.6457 9.25 13.387C10.3167 13.129 11.4 13 12.5 13C13.6 13 14.6833 13.129 15.75 13.387C16.8167 13.6457 17.8667 14.0333 18.9 14.55C19.3833 14.8 19.7707 15.1623 20.062 15.637C20.354 16.1123 20.5 16.6333 20.5 17.2V20H4.5ZM6.5 18H18.5V17.2C18.5 17.0167 18.4543 16.85 18.363 16.7C18.271 16.55 18.15 16.4333 18 16.35C17.1 15.9 16.1917 15.5623 15.275 15.337C14.3583 15.1123 13.4333 15 12.5 15C11.5667 15 10.6417 15.1123 9.725 15.337C8.80833 15.5623 7.9 15.9 7 16.35C6.85 16.4333 6.72933 16.55 6.638 16.7C6.546 16.85 6.5 17.0167 6.5 17.2V18ZM12.5 10C13.05 10 13.521 9.804 13.913 9.412C14.3043 9.02067 14.5 8.55 14.5 8C14.5 7.45 14.3043 6.97933 13.913 6.588C13.521 6.196 13.05 6 12.5 6C11.95 6 11.4793 6.196 11.088 6.588C10.696 6.97933 10.5 7.45 10.5 8C10.5 8.55 10.696 9.02067 11.088 9.412C11.4793 9.804 11.95 10 12.5 10Z" fill="url(#paint0_linear_1677_1256)"/>
</g>
<defs>
<linearGradient id="paint0_linear_1677_1256" x1="4.5" y1="11.9105" x2="20.5" y2="11.9105" gradientUnits="userSpaceOnUse">
<stop stop-color="#0D51DA"/>
<stop offset="0.770833" stop-color="#0079FF"/>
</linearGradient>
</defs>
</svg>
