
<svg width="56" height="57" viewBox="0 0 56 57" fill="none" xmlns="http://www.w3.org/2000/svg">
<rect y="0.5" width="56" height="56" rx="4" fill="white"/>
<g clip-path="url(#clip0_2792_22496)">
<path d="M13.9537 45.07V44.1162C13.9537 34.8925 13.9537 25.6688 13.9537 16.4437C13.9537 15.2496 14.0703 15.1372 15.2896 15.1358C16.1788 15.1344 17.0695 15.1302 17.9587 15.1246C18.0008 15.1246 18.043 15.0979 18.1694 15.0557C18.1694 13.9446 18.168 12.8067 18.1694 11.6674C18.1722 10.6869 18.3464 10.5015 19.2946 10.5001C25.1019 10.4987 30.9093 10.4987 36.7152 10.5001C37.6662 10.5001 37.8432 10.6855 37.846 11.6618C37.8488 12.7842 37.846 13.9066 37.846 15.1358C38.1677 15.1358 38.4613 15.119 38.7521 15.1386C39.7846 15.2089 40.8171 15.2903 41.8496 15.369C41.9198 16.4043 42.0505 17.4396 42.0519 18.4749C42.0687 27.0202 42.0617 35.5654 42.0617 44.1106V45.0644C42.6798 45.0644 43.2768 45.0714 43.8739 45.0616C44.3992 45.0532 44.8614 45.1824 44.8432 45.7963C44.8277 46.3624 44.3796 46.4748 43.8851 46.4748C40.3029 46.4692 36.7194 46.472 33.1372 46.472C26.2524 46.472 19.3691 46.472 12.4843 46.472C12.2736 46.472 12.0095 46.5478 11.8634 46.4495C11.5909 46.2641 11.3858 45.9775 11.1526 45.7331C11.3858 45.5125 11.5979 45.1361 11.855 45.1009C12.5166 45.0096 13.1993 45.07 13.9495 45.07H13.9537ZM15.395 45.0124H23.7899C23.7899 42.4122 23.7885 39.8626 23.7899 37.3143C23.7899 36.4054 23.9851 36.2144 24.9095 36.213C26.9703 36.2101 29.0297 36.2101 31.0905 36.213C32.0429 36.213 32.2213 36.3984 32.2227 37.3719C32.2255 38.8469 32.2227 40.3219 32.2227 41.7955C32.2227 42.8645 32.2227 43.9336 32.2227 45.0166H40.5979V16.5799H15.395V45.0138V45.0124ZM36.4033 11.954H19.6332V15.1035H36.4033V11.954ZM30.7814 45.0096V37.6627H25.248V45.0293L30.7814 45.0082V45.0096Z" fill="#FF7F59"/>
<path d="M16.7649 22.1189C16.7649 21.4881 16.7649 20.856 16.7649 20.2252C16.7649 19.6535 17.0458 19.3557 17.6218 19.3543C18.931 19.3529 20.2417 19.3501 21.5509 19.3543C22.0875 19.3557 22.3811 19.6324 22.3839 20.1747C22.3896 21.5078 22.3924 22.8409 22.3825 24.1726C22.3783 24.7191 22.0623 24.9719 21.5299 24.9734C20.2431 24.9748 18.9577 24.9705 17.671 24.9762C17.0641 24.979 16.7593 24.6952 16.7635 24.0827C16.7677 23.4281 16.7635 22.7735 16.7635 22.1189H16.7649ZM18.2062 23.5278H20.9342V20.8124H18.2062V23.5278Z" fill="#FF7F59"/>
<path d="M25.1961 22.1216C25.1961 21.4909 25.1961 20.8587 25.1961 20.228C25.1961 19.6562 25.4728 19.3556 26.0502 19.3542C27.3594 19.3514 28.6701 19.35 29.9793 19.3542C30.5609 19.357 30.8208 19.6745 30.8194 20.242C30.8165 21.5288 30.818 22.8142 30.8194 24.1009C30.8194 24.6727 30.5412 24.9733 29.9653 24.9733C28.656 24.9761 27.3454 24.9775 26.0361 24.9733C25.4545 24.9705 25.1933 24.653 25.1961 24.0855C25.1989 23.4309 25.1961 22.7762 25.1961 22.1216ZM29.3767 20.8082H26.6556V23.5334H29.3767V20.8082Z" fill="#FF7F59"/>
<path d="M36.3951 24.9749C35.7629 24.9749 35.1322 24.9749 34.5 24.9749C33.9283 24.9749 33.6291 24.6967 33.6277 24.1194C33.6249 22.8101 33.6234 21.5009 33.6277 20.1902C33.6305 19.6086 33.9494 19.3502 34.5155 19.3516C35.8022 19.3544 37.0876 19.353 38.3744 19.3516C38.9461 19.3516 39.2453 19.6297 39.2467 20.2071C39.2495 21.5163 39.2509 22.8256 39.2467 24.1362C39.2439 24.7178 38.925 24.9777 38.3589 24.9749C37.7043 24.9706 37.0497 24.9749 36.3936 24.9749H36.3951ZM37.7914 23.5378V20.8181H35.0746V23.5378H37.7914Z" fill="#FF7F59"/>
<path d="M19.6192 27.7827C20.2514 27.7827 20.8821 27.7827 21.5143 27.7827C22.086 27.7827 22.3866 28.0595 22.388 28.6368C22.3908 29.9461 22.3922 31.2553 22.388 32.566C22.3852 33.1475 22.0677 33.4074 21.5002 33.406C20.2134 33.4032 18.9281 33.4046 17.6413 33.406C17.0696 33.406 16.769 33.1279 16.7676 32.5519C16.7647 31.2427 16.7633 29.9334 16.7676 28.6228C16.7704 28.0412 17.0878 27.7799 17.6554 27.7827C18.31 27.7855 18.9646 27.7827 19.6206 27.7827H19.6192ZM18.2131 29.224V31.9521H20.9285V29.224H18.2131Z" fill="#FF7F59"/>
<path d="M27.972 33.405C27.3638 33.405 26.7555 33.3952 26.1472 33.4078C25.5109 33.4204 25.1892 33.1395 25.1934 32.4877C25.2004 31.2248 25.2004 29.9619 25.1934 28.699C25.1892 28.0472 25.5123 27.7733 26.1472 27.7789C27.3862 27.7901 28.6267 27.7747 29.8657 27.7845C30.5849 27.7901 30.8111 28.0275 30.8153 28.7693C30.8237 29.9858 30.8237 31.2009 30.8153 32.4174C30.8097 33.1788 30.5793 33.3952 29.7954 33.4036C29.1872 33.4106 28.5789 33.4036 27.9706 33.4036L27.972 33.405ZM26.6417 29.2216V31.9525H29.3613V29.2216H26.6417Z" fill="#FF7F59"/>
<path d="M39.2509 30.6274C39.2509 31.2357 39.2411 31.8439 39.2537 32.4508C39.2664 33.0857 38.9882 33.4103 38.3364 33.4074C37.0735 33.4004 35.8107 33.4004 34.5478 33.4074C33.896 33.4117 33.6192 33.0914 33.6248 32.455C33.6361 31.216 33.6206 29.9756 33.6305 28.7366C33.6361 28.0159 33.8721 27.7898 34.6124 27.7842C35.8289 27.7757 37.0455 27.7757 38.2606 27.7842C39.0234 27.7898 39.2411 28.0187 39.2495 28.8026C39.2566 29.4109 39.2495 30.0191 39.2495 30.626L39.2509 30.6274ZM37.8279 29.2493H35.083V31.9437H37.8279V29.2493Z" fill="#FF7F59"/>
<path d="M16.7647 38.9801C16.7647 38.3493 16.7647 37.7172 16.7647 37.0864C16.7647 36.5147 17.0428 36.2155 17.6202 36.2141C18.9294 36.2113 20.2401 36.2099 21.5493 36.2141C22.1309 36.2169 22.3894 36.5358 22.388 37.1019C22.3851 38.3887 22.3866 39.674 22.388 40.9608C22.388 41.5325 22.1098 41.8318 21.5325 41.8332C20.2232 41.836 18.9126 41.8374 17.6033 41.8332C17.0217 41.8303 16.7619 41.5115 16.7647 40.9453C16.7689 40.2907 16.7647 39.6361 16.7647 38.9815V38.9801ZM18.206 40.3806H20.927V37.6554H18.206V40.3806Z" fill="#FF7F59"/>
<path d="M36.4386 41.8346C35.8064 41.8346 35.1757 41.829 34.5435 41.8346C33.9409 41.8417 33.6248 41.5663 33.6262 40.951C33.6276 39.6643 33.6276 38.3789 33.6262 37.0921C33.6262 36.4754 33.9423 36.2057 34.5435 36.2085C35.8064 36.2156 37.0693 36.2156 38.3322 36.2085C38.984 36.2043 39.2579 36.5274 39.2523 37.1638C39.2411 38.4028 39.2565 39.6432 39.2467 40.8822C39.2411 41.6014 39.0037 41.822 38.262 41.8318C37.6537 41.8403 37.0454 41.8332 36.4372 41.8332L36.4386 41.8346ZM35.0507 40.3681H37.7956V37.6737H35.0507V40.3681Z" fill="#FF7F59"/>
</g>
<rect x="0.5" y="1" width="55" height="55" rx="3.5" stroke="#CFCFCF" stroke-opacity="0.15"/>
<defs>
<clipPath id="clip0_2792_22496">
<rect width="33.6892" height="36" fill="white" transform="translate(11.1555 10.5)"/>
</clipPath>
</defs>
</svg>
