<svg width="368" height="385" viewBox="0 0 368 385" fill="none" xmlns="http://www.w3.org/2000/svg">
<g clip-path="url(#clip0_1702_321)">
<g opacity="0.804">
<path fill-rule="evenodd" clip-rule="evenodd" d="M222.737 372.616C221.578 372.693 220.421 372.775 219.249 372.825C89.3877 378.384 12.3605 282.255 12.3605 186.524C12.3605 165.422 15.8151 133.709 22.6679 114.944C30.571 94.4363 41.9581 75.4522 56.3254 58.8319C34.994 80.2471 19.0589 106.438 9.83706 135.241L9.68104 135.724C9.49839 136.303 9.31519 136.883 9.13743 137.465C2.71275 158.01 -0.16651 179.5 0.623432 201.014C4.26561 302.485 86.8909 382.625 187.526 384.934H187.571C188.798 384.961 190.029 384.977 191.262 384.98C191.674 384.98 192.085 384.996 192.497 384.996C192.918 384.996 193.337 384.989 193.755 384.985C193.889 384.985 194.023 384.985 194.155 384.982C199.391 384.938 204.573 384.688 209.702 384.23L209.773 384.224C210.735 384.138 211.694 384.046 212.651 383.946C264.932 378.829 310.283 355.068 343.777 311.101C337.352 317.555 330.561 323.633 323.437 329.305C294.992 351.405 260.231 367.978 222.737 372.616Z" fill="white"/>
<path fill-rule="evenodd" clip-rule="evenodd" d="M215.208 2.34062C213.872 2.12471 212.537 1.92512 211.203 1.74186C210.405 1.63299 209.609 1.53556 208.811 1.43486C208.279 1.36845 207.746 1.29496 207.216 1.23237C206.306 1.1235 205.397 1.03586 204.488 0.942782C204.071 0.900868 203.653 0.851879 203.235 0.812142C202.316 0.725049 201.399 0.652653 200.482 0.580257C200.121 0.551408 199.76 0.516026 199.4 0.489354C199.451 0.493164 199.502 0.499696 199.554 0.504595C183.33 -0.711468 167.016 0.263647 151.051 3.4037C168.376 1.19735 185.927 1.49598 203.167 4.29042C248.755 11.559 289.84 36.0116 318.003 72.6366C138.547 4.71826 32.168 151.902 25.686 246.563C34.7718 209.971 51.0105 178.885 72.0884 153.819C68.0616 166.123 66.0151 178.99 66.0255 191.937C66.0255 259.426 120.664 314.136 188.062 314.136C255.461 314.136 310.102 259.428 310.102 191.938C310.104 168.097 303.142 144.775 290.074 124.846C277.006 104.917 258.403 89.2497 236.554 79.7739C271.835 80.727 307.45 90.6839 340.072 110.399L340.034 109.633C354.218 141.523 358.761 176.875 353.101 211.322C343.035 273.147 302.508 322.506 249.261 346.698L249.221 346.714C244.492 348.861 239.666 350.808 234.745 352.553C234.69 352.574 234.632 352.593 234.574 352.613C232.965 353.182 231.346 353.729 229.718 354.253H229.713C228.15 354.758 226.576 355.233 224.996 355.698C224.753 355.768 224.507 355.837 224.265 355.907C222.782 356.334 221.293 356.742 219.798 357.133C219.718 357.154 219.639 357.176 219.558 357.196C218.041 357.586 216.519 357.956 214.992 358.307C214.635 358.389 214.279 358.47 213.921 358.55C212.389 358.893 210.854 359.225 209.309 359.53C286.871 349.63 351.988 290.135 365.138 209.376C381.157 111.002 314.016 18.2895 215.208 2.34062ZM252.649 191.936C252.649 227.763 223.733 256.806 188.064 256.806C152.394 256.806 123.478 227.763 123.478 191.936C123.478 156.108 152.394 127.066 188.062 127.066C223.73 127.066 252.649 156.11 252.649 191.938V191.936Z" fill="white"/>
</g>
</g>
<g clip-path="url(#clip1_1702_321)">
<path d="M85.6457 283.116C67.5756 263.415 55.598 238.902 51.1605 212.54C46.7229 186.178 50.0154 159.095 60.6398 134.564" stroke="#B2B2B2" stroke-width="4" stroke-linecap="round" stroke-linejoin="round"/>
<path d="M303.281 265.22C292.879 281.141 279.306 294.746 263.408 305.185C247.511 315.623 229.631 322.671 210.887 325.887C192.143 329.103 172.936 328.418 154.468 323.876C136.001 319.333 118.668 311.031 103.554 299.487" stroke="#003756" stroke-width="4" stroke-linecap="round" stroke-linejoin="round"/>
<path d="M131.785 63.0524C149.341 55.3223 168.318 51.3429 187.5 51.3687C263.859 51.3687 325.761 113.268 325.761 189.624C325.767 199.65 324.686 209.647 322.538 219.441" stroke="#003756" stroke-width="4" stroke-linecap="round" stroke-linejoin="round"/>
<path d="M117.812 73.7542C119.767 73.7542 121.352 72.1696 121.352 70.215C121.352 68.2603 119.767 66.6758 117.812 66.6758C115.858 66.6758 114.273 68.2603 114.273 70.215C114.273 72.1696 115.858 73.7542 117.812 73.7542Z" fill="#B2B2B2"/>
<path d="M98.5997 87.2774C100.554 87.2774 102.139 85.6928 102.139 83.7382C102.139 81.7835 100.554 80.1989 98.5997 80.1989C96.645 80.1989 95.0604 81.7835 95.0604 83.7382C95.0604 85.6928 96.645 87.2774 98.5997 87.2774Z" fill="#003756"/>
<path d="M81.9541 103.858C83.9088 103.858 85.4934 102.273 85.4934 100.319C85.4934 98.3641 83.9088 96.7796 81.9541 96.7796C79.9993 96.7796 78.4147 98.3641 78.4147 100.319C78.4147 102.273 79.9993 103.858 81.9541 103.858Z" fill="#B2B2B2"/>
<path d="M68.3568 123.017C70.3115 123.017 71.8961 121.433 71.8961 119.478C71.8961 117.523 70.3115 115.939 68.3568 115.939C66.4021 115.939 64.8174 117.523 64.8174 119.478C64.8174 121.433 66.4021 123.017 68.3568 123.017Z" fill="#003756"/>
<path d="M94.4089 295.384C96.3636 295.384 97.9482 293.799 97.9482 291.845C97.9482 289.89 96.3636 288.305 94.4089 288.305C92.4542 288.305 90.8696 289.89 90.8696 291.845C90.8696 293.799 92.4542 295.384 94.4089 295.384Z" fill="#B2B2B2"/>
<path d="M310.848 255.62C312.802 255.62 314.387 254.035 314.387 252.081C314.387 250.126 312.802 248.541 310.848 248.541C308.893 248.541 307.308 250.126 307.308 252.081C307.308 254.035 308.893 255.62 310.848 255.62Z" fill="#B2B2B2"/>
<path d="M318.297 237.971C320.252 237.971 321.837 236.386 321.837 234.432C321.837 232.477 320.252 230.893 318.297 230.893C316.343 230.893 314.758 232.477 314.758 234.432C314.758 236.386 316.343 237.971 318.297 237.971Z" fill="#003756"/>
</g>
<defs>
<clipPath id="clip0_1702_321">
<rect width="367" height="385" fill="white" transform="translate(0.5)"/>
</clipPath>
<clipPath id="clip1_1702_321">
<rect width="279.257" height="279.247" fill="white" transform="translate(47.8714 50)"/>
</clipPath>
</defs>
</svg>
